<?xml version="1.0" encoding="UTF-8"?>
<svg width="24px" height="24px" viewBox="0 0 24 24" version="1.1" xmlns="http://www.w3.org/2000/svg" xmlns:xlink="http://www.w3.org/1999/xlink">
    <!-- Generator: Sketch 64 (93537) - https://sketch.com -->
    <title>1828919</title>
    <desc>Created with Sketch.</desc>
    <g id="Page-1" stroke="none" stroke-width="1" fill="none" fill-rule="evenodd">
        <g id="Desktop-HD-Copy-5" transform="translate(-389.000000, -494.000000)" fill="#FF00EF" fill-rule="nonzero">
            <g id="Group-6" transform="translate(389.000000, 494.000000)">
                <g id="1828919">
                    <path d="M12,0 C5.38293459,0 0,5.38293459 0,12 C0,18.6170654 5.38293459,24 12,24 C18.6170654,24 24,18.6170654 24,12 C24,5.38293459 18.6170654,0 12,0 Z M17.25,12.999939 L12.999939,12.999939 L12.999939,17.25 C12.999939,17.802063 12.552063,18.249939 12,18.249939 C11.447937,18.249939 11.000061,17.802063 11.000061,17.25 L11.000061,12.999939 L6.75,12.999939 C6.197937,12.999939 5.75006105,12.552063 5.75006105,12 C5.75006105,11.447937 6.197937,11.000061 6.75,11.000061 L11.000061,11.000061 L11.000061,6.75 C11.000061,6.197937 11.447937,5.75006105 12,5.75006105 C12.552063,5.75006105 12.999939,6.197937 12.999939,6.75 L12.999939,11.000061 L17.25,11.000061 C17.802063,11.000061 18.249939,11.447937 18.249939,12 C18.249939,12.552063 17.802063,12.999939 17.25,12.999939 L17.25,12.999939 Z" id="Shape"></path>
                </g>
            </g>
        </g>
    </g>
</svg>