<?xml version="1.0" encoding="UTF-8" standalone="no"?>
<svg
   xmlns:dc="http://purl.org/dc/elements/1.1/"
   xmlns:cc="http://creativecommons.org/ns#"
   xmlns:rdf="http://www.w3.org/1999/02/22-rdf-syntax-ns#"
   xmlns:svg="http://www.w3.org/2000/svg"
   xmlns="http://www.w3.org/2000/svg"
   viewBox="0 0 44 26.666668"
   height="26.666668"
   width="44"
   xml:space="preserve"
   id="svg2"
   version="1.1"><metadata
     id="metadata8"><rdf:RDF><cc:Work
         rdf:about=""><dc:format>image/svg+xml</dc:format><dc:type
           rdf:resource="http://purl.org/dc/dcmitype/StillImage" /></cc:Work></rdf:RDF></metadata><defs
     id="defs6"><clipPath
       id="clipPath20"
       clipPathUnits="userSpaceOnUse"><path
         id="path18"
         d="m 324.84,111.418 -84.293,83.887 c -6.313,6.281 -16.524,6.258 -22.809,-0.055 -6.285,-6.316 -6.261,-16.527 0.051,-22.812 l 56.586,-56.309 H 16.1289 C 7.22266,116.129 0,108.906 0,100 0,91.0938 7.22266,83.8711 16.1289,83.8711 H 274.375 L 217.793,27.5625 c -6.316,-6.2852 -6.34,-16.4961 -0.055,-22.8125 6.285,-6.3125 16.496,-6.33594 22.809,-0.05469 l 84.277,83.87109 c 6.332,6.3203 6.313,16.5666 0.016,22.8516 z" /></clipPath><clipPath
       id="clipPath26"
       clipPathUnits="userSpaceOnUse"><path
         id="path24"
         d="M 0,0 H 330 V 200 H 0 Z" /></clipPath></defs><g
     transform="matrix(1.3333333,0,0,-1.3333333,0,26.666667)"
     id="g10"><g
       transform="scale(0.1)"
       id="g12"><g
         id="g14"><g
           clip-path="url(#clipPath20)"
           id="g16"><g
             clip-path="url(#clipPath26)"
             id="g22"><path
               id="path28"
               style="fill:#000000;fill-opacity:1;fill-rule:nonzero;stroke:none"
               d="M 0,0 H 379.566 V 250 H 0 Z" /></g></g></g></g></g></svg>