<?xml version="1.0" encoding="UTF-8"?>
<svg width="12px" height="8px" viewBox="0 0 12 8" version="1.1" xmlns="http://www.w3.org/2000/svg" xmlns:xlink="http://www.w3.org/1999/xlink">
    <!-- Generator: Sketch 64 (93537) - https://sketch.com -->
    <title>271210</title>
    <desc>Created with Sketch.</desc>
    <g id="Page-1" stroke="none" stroke-width="1" fill="none" fill-rule="evenodd">
        <g id="03-col-Treasury-Landing---Wallet-expand-Copy" transform="translate(-1358.000000, -69.000000)" fill="#FFFFFF" fill-rule="nonzero">
            <g id="Group-10" transform="translate(1015.000000, 58.000000)">
                <g id="Group-5" transform="translate(204.000000, 5.000000)">
                    <g id="271210" transform="translate(145.000000, 9.121951) scale(1, -1) translate(-145.000000, -9.121951) translate(139.000000, 5.121951)">
                        <path d="M11.8080976,0.609414634 L11.4150244,0.213609756 C11.2913171,0.09 11.1267317,0.021902439 10.9508293,0.021902439 C10.7750244,0.021902439 10.6102439,0.09 10.4865366,0.213609756 L6.00263415,4.69770732 L1.51356098,0.208634146 C1.39004878,0.0850243902 1.22526829,0.0170243902 1.04946341,0.0170243902 C0.873658537,0.0170243902 0.708780488,0.0850243902 0.585170732,0.208634146 L0.192,0.602 C-0.064,0.857804878 -0.064,1.2744878 0.192,1.53029268 L5.53678049,6.89429268 C5.66029268,7.01780488 5.82487805,7.10482927 6.0022439,7.10482927 L6.00429268,7.10482927 C6.18019512,7.10482927 6.34478049,7.01770732 6.46829268,6.89429268 L11.8080976,1.54482927 C11.9318049,1.42131707 11.9997073,1.2517561 11.9999024,1.07595122 C11.9999024,0.90004878 11.9318049,0.732829268 11.8080976,0.609414634 Z" id="Path" transform="translate(5.999951, 3.560927) scale(1, -1) translate(-5.999951, -3.560927) "></path>
                    </g>
                </g>
            </g>
        </g>
    </g>
</svg>