<?xml version="1.0" encoding="UTF-8"?>
<svg width="48px" height="48px" viewBox="0 0 48 48" version="1.1" xmlns="http://www.w3.org/2000/svg" xmlns:xlink="http://www.w3.org/1999/xlink">
    <!-- Generator: Sketch 53.2 (72643) - https://sketchapp.com -->
    <title>Group 28</title>
    <desc>Created with Sketch.</desc>
    <defs>
        <linearGradient x1="9.48666%" y1="20%" x2="33.50654%" y2="20%" id="linearGradient-1">
            <stop stop-color="#C0469A" offset="0%"></stop>
            <stop stop-color="#A04E9E" offset="100%"></stop>
        </linearGradient>
        <path d="M22.3295764,15.72766 L22.3295764,15.6796359 C25.6612021,14.57508 27.9639434,12.5580649 27.9639434,8.66810717 C27.9639434,5.01827032 26.3471251,0.119805072 17.3811324,0.119805072 L0.1840644,0.119805072 L0.1840644,33.6886993 L16.4992314,33.6886993 C22.5745489,33.6886993 29.6297563,32.3440225 29.6297563,24.2759621 C29.605259,18.1768927 24.9507819,16.2559259 22.3295764,15.72766 Z M8.26815618,6.67510416 L15.372358,6.67510416 C18.9489562,6.67510416 19.7328682,8.54804675 19.7328682,9.94074766 C19.7328682,11.2374002 18.9979507,13.3984878 15.7153195,13.3984878 L8.26815618,13.3984878 L8.26815618,6.67510416 Z M16.6462149,27.1814244 L8.26815618,27.1814244 L8.26815618,19.5695936 L15.6173305,19.5695936 C18.5570003,19.5695936 21.104714,20.1939078 21.104714,23.4115271 C21.104714,26.4850739 18.0670553,27.1814244 16.6462149,27.1814244 Z" id="path-2"></path>
    </defs>
    <g id="Page-1" stroke="none" stroke-width="1" fill="none" fill-rule="evenodd">
        <g id="WhaleStreet-V2-Home-Copy" transform="translate(-264.000000, -437.000000)">
            <g id="Group-28" transform="translate(264.000000, 437.000000)">
                <g id="b20-icon" transform="translate(0.038136, 0.038136)">
                    <g id="Group" fill-rule="nonzero">
                        <circle id="Oval" fill="#CA3D9E" cx="23.8848166" cy="23.8848166" r="23.8848166"></circle>
                        <circle id="Oval" fill="#FFFFFF" cx="23.8848166" cy="23.8848166" r="22.6189213"></circle>
                    </g>
                    <g id="Group" transform="translate(10.089206, 5.885370)">
                        <g id="SVGID_2_-link" transform="translate(0.165949, 0.327907)">
                            <g id="Group-32" transform="translate(0.158897, 0.120316)">
                                <mask id="mask-3" fill="white">
                                    <use xlink:href="#path-2"></use>
                                </mask>
                                <use id="Mask" fill="#CA3D9E" fill-rule="nonzero" xlink:href="#path-2"></use>
                                <g mask="url(#mask-3)" fill="#010101" fill-rule="nonzero" id="Rectangle">
                                    <g transform="translate(-24.747294, -23.677239)">
                                        <polygon transform="translate(23.963063, 24.253526) rotate(-45.000000) translate(-23.963063, -24.253526) " points="-8.97785357 23.5845413 56.897188 24.2433867 56.9039803 24.9225109 -8.97106135 24.2636655"></polygon>
                                        <polygon transform="translate(25.445933, 25.687357) rotate(-45.000000) translate(-25.445933, -25.687357) " points="-7.49498371 25.0183725 58.3800579 25.6772179 58.3868501 26.3563421 -7.48819149 25.6974967"></polygon>
                                        <polygon transform="translate(26.911506, 27.138143) rotate(-45.000000) translate(-26.911506, -27.138143) " points="-6.02941136 26.4691587 59.8456302 27.1280041 59.8524225 27.8071282 -6.02261914 27.1482828"></polygon>
                                        <polygon transform="translate(28.411697, 28.588954) rotate(-45.000000) translate(-28.411697, -28.588954) " points="-4.52921951 27.9199688 61.3458221 28.5788142 61.3526143 29.2579384 -4.52242729 28.599093"></polygon>
                                        <polygon transform="translate(29.877245, 30.039740) rotate(-45.000000) translate(-29.877245, -30.039740) " points="-3.06367166 29.370755 62.8113699 30.0296003 62.8181622 30.7087245 -3.05687944 30.0498791"></polygon>
                                        <polygon transform="translate(31.377462, 31.490550) rotate(-45.000000) translate(-31.377462, -31.490550) " points="-1.5634553 30.8215651 64.3115863 31.4804105 64.3183785 32.1595346 -1.55666308 31.5006893"></polygon>
                                        <polygon transform="translate(32.843009, 32.941360) rotate(-45.000000) translate(-32.843009, -32.941360) " points="-0.0979074518 32.2723753 65.7771341 32.9312206 65.7839264 33.6103448 -0.0911152314 32.9514994"></polygon>
                                        <polygon transform="translate(34.308582, 34.392146) rotate(-45.000000) translate(-34.308582, -34.392146) " points="1.3676649 33.7231614 67.2427065 34.3820068 67.2494987 35.0611309 1.37445712 34.4022855"></polygon>
                                        <polygon transform="translate(35.808774, 35.842956) rotate(-45.000000) translate(-35.808774, -35.842956) " points="2.86785675 35.1739716 68.7428983 35.8328169 68.7496906 36.5119411 2.87464897 35.8530957"></polygon>
                                        <polygon transform="translate(37.274322, 37.293742) rotate(-45.000000) translate(-37.274322, -37.293742) " points="4.3334046 36.6247577 70.2084462 37.2836031 70.2152384 37.9627272 4.34019682 37.3038818"></polygon>
                                        <polygon transform="translate(38.774538, 38.744553) rotate(-45.000000) translate(-38.774538, -38.744553) " points="5.83362096 38.0755678 71.7086626 38.7344132 71.7154548 39.4135374 5.84041318 38.754692"></polygon>
                                        <polygon transform="translate(40.240086, 40.195363) rotate(-45.000000) translate(-40.240086, -40.195363) " points="7.29916881 39.526378 73.1742104 40.1852234 73.1810026 40.8643475 7.30596103 40.2055021"></polygon>
                                        <polygon transform="translate(41.722956, 41.663128) rotate(-45.000000) translate(-41.722956, -41.663128) " points="8.78203866 40.9941431 74.6570803 41.6529884 74.6638725 42.3321126 8.78883088 41.6732672"></polygon>
                                        <polygon transform="translate(43.205850, 43.096959) rotate(-45.000000) translate(-43.205850, -43.096959) " points="10.264933 42.4279743 76.1399746 43.0868197 76.1467668 43.7659438 10.2717252 43.1070984"></polygon>
                                        <polygon transform="translate(44.671398, 44.547745) rotate(-45.000000) translate(-44.671398, -44.547745) " points="11.7304809 43.8787604 77.6055225 44.5376058 77.6123147 45.2167299 11.7372731 44.5578846"></polygon>
                                        <polygon transform="translate(46.171590, 45.998555) rotate(-45.000000) translate(-46.171590, -45.998555) " points="13.2306727 45.3295706 79.1057143 45.9884159 79.1125065 46.6675401 13.2374649 46.0086947"></polygon>
                                        <polygon transform="translate(47.637162, 47.449365) rotate(-45.000000) translate(-47.637162, -47.449365) " points="14.6962451 46.7803807 80.5712867 47.4392261 80.5780789 48.1183502 14.7030373 47.4595048"></polygon>
                                        <polygon transform="translate(49.137354, 48.900152) rotate(-45.000000) translate(-49.137354, -48.900152) " points="16.1964369 48.2311668 82.0714785 48.8900122 82.0782707 49.5691364 16.2032291 48.910291"></polygon>
                                        <polygon transform="translate(50.602926, 50.350962) rotate(-45.000000) translate(-50.602926, -50.350962) " points="17.6620093 49.681977 83.5370509 50.3408224 83.5438431 51.0199465 17.6688015 50.3611011"></polygon>
                                        <polygon transform="translate(52.085796, 51.818727) rotate(-45.000000) translate(-52.085796, -51.818727) " points="19.1448791 51.1497421 85.0199207 51.8085875 85.0267129 52.4877116 19.1516713 51.8288662"></polygon>
                                    </g>
                                </g>
                            </g>
                        </g>
                    </g>
                </g>
            </g>
        </g>
    </g>
</svg>