<?xml version="1.0" encoding="UTF-8"?>
<svg width="18px" height="15px" viewBox="0 0 18 15" version="1.1" xmlns="http://www.w3.org/2000/svg" xmlns:xlink="http://www.w3.org/1999/xlink">
    <!-- Generator: Sketch 64 (93537) - https://sketch.com -->
    <title>507257</title>
    <desc>Created with Sketch.</desc>
    <g id="Page-1" stroke="none" stroke-width="1" fill="none" fill-rule="evenodd">
        <g id="Treasury--stake-unstake-claim" transform="translate(-387.000000, -289.000000)" fill="#000000" fill-rule="nonzero">
            <g id="Group-18" transform="translate(387.000000, 282.000000)">
                <g id="507257" transform="translate(0.000000, 7.000000)">
                    <path d="M16.9181117,6.2723471 C16.8444604,6.26073218 16.7699237,6.25537446 16.6953467,6.25631304 L3.99669896,6.25631304 L4.27359558,6.13116908 C4.54425397,6.00668996 4.79048267,5.83727633 5.00125412,5.63059327 L8.56227337,2.17036299 C9.03126701,1.73533132 9.11006986,1.03550288 8.7490176,0.512205616 C8.32880284,-0.0454280145 7.52294515,-0.166504789 6.94902862,0.241816464 C6.90266454,0.274823181 6.85859451,0.310802068 6.81718076,0.349518478 L0.377724607,6.6067161 C-0.125518891,7.09516859 -0.125961604,7.88752535 0.376718442,8.37652534 C0.377040415,8.3768382 0.377402634,8.37719017 0.377724607,8.37750303 L6.81718076,14.6347007 C7.32082672,15.122723 8.1362631,15.121628 8.63854068,14.6322369 C8.67806284,14.593716 8.71496898,14.5527314 8.7490176,14.5095567 C9.11006986,13.9862594 9.03126701,13.286431 8.56227337,12.8513993 L5.00769358,9.38491185 C4.81873579,9.20110667 4.60148463,9.04698407 4.36374796,8.92813642 L3.97738059,8.75919209 L16.6244725,8.75919209 C17.2823837,8.78293033 17.8596004,8.33636196 17.9831977,7.70798288 C18.0970554,7.02575281 17.6202136,6.38302129 16.9181117,6.2723471 Z" id="Path"></path>
                </g>
            </g>
        </g>
    </g>
</svg>