<?xml version="1.0" encoding="UTF-8"?>
<svg width="20px" height="12px" viewBox="0 0 20 12" version="1.1" xmlns="http://www.w3.org/2000/svg" xmlns:xlink="http://www.w3.org/1999/xlink">
    <!-- Generator: Sketch 64 (93537) - https://sketch.com -->
    <title>Group 7</title>
    <desc>Created with Sketch.</desc>
    <g id="Page-1" stroke="none" stroke-width="1" fill="none" fill-rule="evenodd">
        <g id="06-PAYOUT-TOKEN" transform="translate(-1128.000000, -207.000000)" fill="#FFFFFF" fill-rule="nonzero">
            <g id="Group-7" transform="translate(1128.000000, 207.000000)">
                <g id="545682" transform="translate(10.000000, 6.000000) scale(-1, 1) translate(-10.000000, -6.000000) ">
                    <path d="M19.1950428,5.31497956 L14.2141567,0.281803083 C13.8410739,-0.0951807175 13.2376319,-0.093777492 12.8662647,0.285093405 C12.4949451,0.663915914 12.4963747,1.27664161 12.8694575,1.65367379 L16.2130492,5.0322538 L0.953079,5.0322538 C0.426693468,5.0322538 0,5.46551179 0,6 C0,6.53447933 0.426693468,6.96773731 0.953079,6.96773731 L16.2130016,6.96773731 L12.8695052,10.3463173 C12.4964224,10.7233495 12.4949928,11.3360752 12.8663123,11.7148977 C13.2376796,12.093817 13.8411692,12.0951234 14.2142043,11.718188 L19.1942327,6.68593091 C19.5683639,6.3067213 19.5671725,5.69201174 19.1950428,5.31497956 Z" id="Path"></path>
                </g>
            </g>
        </g>
    </g>
</svg>