<?xml version="1.0" encoding="UTF-8"?>
<svg width="20px" height="20px" viewBox="0 0 20 20" version="1.1" xmlns="http://www.w3.org/2000/svg" xmlns:xlink="http://www.w3.org/1999/xlink">
    <!-- Generator: Sketch 64 (93537) - https://sketch.com -->
    <title>Group 11</title>
    <desc>Created with Sketch.</desc>
    <g id="Page-1" stroke="none" stroke-width="1" fill="none" fill-rule="evenodd">
        <g id="Treasury--unstake" transform="translate(-1051.000000, -62.000000)">
            <g id="Group-12" transform="translate(1045.000000, 58.000000)">
                <g id="Group-11" transform="translate(6.000000, 4.000000)">
                    <circle id="Oval" fill="#000000" cx="10" cy="10" r="10"></circle>
                    <g id="2424549" transform="translate(4.561404, 3.859649)" fill-rule="nonzero">
                        <path d="M5.26315789,6.98240467 C5.26315789,7.19548571 5.0928655,7.36842105 4.88304094,7.36842105 L2.60233918,7.36842105 C1.55423002,7.36842105 0.701754386,6.50245764 0.701754386,5.43833915 C0.701754386,4.39120538 1.52736842,3.53579308 2.55267057,3.50877193 C2.65175439,3.78052746 2.78454191,4.03581296 2.94647173,4.2692242 C2.88902339,4.2834296 2.87706238,4.28029 2.60233918,4.28029 C1.97362573,4.28029 1.4619883,4.79986805 1.4619883,5.43833915 C1.4619883,6.07681024 1.97362573,6.59638829 2.60233918,6.59638829 L4.88304094,6.59638829 C5.0928655,6.59638829 5.26315789,6.76932363 5.26315789,6.98240467 Z" id="Path" fill="#FDB334"></path>
                        <path d="M8.11225046,2.45614035 L7.71929825,2.45614035 L7.71929825,6.1254827 C8.41320295,6.1254827 9.0032614,6.59271229 9.16155132,7.22628541 C9.30824676,7.81240169 9.06400642,8.42053403 8.56317509,8.75126409 C8.316389,8.91379149 8.02829126,9.07563395 7.71929825,9.23258396 L7.71929825,11.2280702 L8.11225046,11.2280702 C10.6007797,11.2280702 12.6217488,9.26717362 12.6315789,6.85935117 C12.6315789,4.39966868 10.5843962,2.45614035 8.11225046,2.45614035 Z" id="Path" fill="#B70023"></path>
                        <path d="M1.47008796,2.25231128 C1.06137921,2.25231128 0.728969237,1.91372206 0.728969237,1.49741574 C0.728969237,1.08110941 1.06137921,0.742520201 1.47008796,0.742520201 L8.40744521,0.742520201 C8.60864072,0.742520201 8.77192982,0.576195676 8.77192982,0.3712601 C8.77192982,0.166324525 8.60864072,0 8.40744521,0 L1.47008796,0 C0.65947417,0 0,0.671733275 0,1.49741574 C0,2.3230982 0.65947417,2.99483148 1.47008796,2.99483148 L2.23161783,2.99483148 C2.41337416,4.66327437 3.80594839,5.96491228 5.49156826,5.96491228 L7.70544783,5.96491228 L7.70544783,2.25231128 L1.47008796,2.25231128 Z" id="Path" fill="#DF0D22"></path>
                        <path d="M8.42019283,0.701754386 L7.71929825,0.701754386 L7.71929825,0 L8.42019283,0 C8.61435165,0 8.77192982,0.157192982 8.77192982,0.350877193 C8.77192982,0.544561404 8.61435165,0.701754386 8.42019283,0.701754386 Z" id="Path" fill="#B70023"></path>
                        <circle id="Oval" fill="#FFDD4D" cx="5.61403509" cy="4.21052632" r="1"></circle>
                        <path d="M10.877193,10.1382877 C10.1928753,10.6035327 9.35920073,10.877193 8.45977153,10.877193 L8.07017544,10.877193 L8.07017544,9.03956559 C8.36701056,8.89037881 8.64364962,8.73620403 8.87989655,8.58157579 C8.95246147,8.53396299 9.01915543,8.48022854 9.07950878,8.42105263 L10.877193,10.1382877 Z" id="Path" fill="#B70023"></path>
                        <g id="Group" transform="translate(4.912281, 2.456140)" fill="#FD5D1C">
                            <path d="M3.33942705,0 L2.93147679,0 L2.93147679,3.66515174 L2.95859205,3.66515174 C3.31780813,3.66515174 3.64666,3.7978791 3.89917388,4.01666422 L6.53111259,1.38405903 C5.728501,0.528930264 4.59017322,0 3.33942705,0 L3.33942705,0 Z" id="Path"></path>
                            <path d="M7.70249167,4.76469726 L4.35642016,4.76469726 C4.48342216,5.2882031 4.30844326,5.83746274 3.90852987,6.18582319 L5.76873418,8.02462982 C6.84386631,7.30516053 7.58406396,6.12273371 7.70249167,4.76469726 L7.70249167,4.76469726 Z" id="Path"></path>
                            <path d="M0.0145103264,8.00371402 L0.0692294026,8.76191174 L2.95859205,8.76191174 L2.95859205,6.76870449 C1.97035088,7.28600401 0.758787475,7.74945023 0.0145103264,8.00371402 L0.0145103264,8.00371402 Z" id="Path"></path>
                        </g>
                        <path d="M4.9122807,11.0758613 L3.68006706,12.3023128 C3.23918557,12.7412928 2.52550867,12.7412928 2.08437669,12.3025621 C1.66378578,11.8837738 1.62145113,11.1783148 2.09740273,10.7016938 C1.61944713,10.2238264 1.66528878,9.51811819 2.08437669,9.1010748 C2.52826418,8.65935281 3.24219158,8.66508622 3.68006706,9.1010748 L4.85717052,10.272685 L4.9122807,11.0758613 Z" id="Path" fill="#DF0D22"></path>
                    </g>
                </g>
            </g>
        </g>
    </g>
</svg>