<?xml version="1.0" encoding="UTF-8"?>
<svg width="30px" height="30px" viewBox="0 0 30 30" version="1.1" xmlns="http://www.w3.org/2000/svg" xmlns:xlink="http://www.w3.org/1999/xlink">
    <!-- Generator: Sketch 64 (93537) - https://sketch.com -->
    <title>Group 10</title>
    <desc>Created with Sketch.</desc>
    <g id="Page-1" stroke="none" stroke-width="1" fill="none" fill-rule="evenodd">
        <g id="Treasury--stake-unstake-claim" transform="translate(-798.000000, -590.000000)" fill-rule="nonzero">
            <g id="Group-19" transform="translate(387.000000, 333.000000)">
                <g id="Group-14" transform="translate(411.000000, 257.000000)">
                    <g id="Group-10">
                        <g id="1828899" fill="#000000">
                            <path d="M15,0 C6.72866824,0 0,6.72866824 0,15 C0,23.2713318 6.72866824,30 15,30 C23.2713318,30 30,23.2713318 30,15 C30,6.72866824 23.2713318,0 15,0 Z" id="Shape"></path>
                        </g>
                        <g id="2424549" transform="translate(5.000000, 5.000000)">
                            <path d="M8,11.39992 C8,11.7311642 7.73866667,12 7.41666667,12 L3.91666667,12 C2.30822222,12 1,10.6538205 1,8.99959995 C1,7.3717829 2.267,6.0420056 3.84044444,6 C3.9925,6.42245633 4.19627778,6.81930924 4.44477778,7.18215762 C4.35661667,7.20424057 4.33826111,7.19935991 3.91666667,7.19935991 C2.95183333,7.19935991 2.16666667,8.00706761 2.16666667,8.99959995 C2.16666667,9.99213228 2.95183333,10.79984 3.91666667,10.79984 L7.41666667,10.79984 C7.73866667,10.79984 8,11.0686758 8,11.39992 Z" id="Path" fill="#FDB334"></path>
                            <path d="M12.6399507,4 L12,4 L12,9.85627039 C13.1300734,9.85627039 14.0910257,10.6019688 14.3488122,11.6131515 C14.5877161,12.5485931 14.1899533,13.5191723 13.3743137,14.0470175 C12.9724049,14.3064112 12.5032172,14.5647118 12,14.815204 L12,18 L12.6399507,18 C16.6926984,18 19.983991,14.8704091 20,11.0275245 C20,7.10187122 16.6660167,4 12.6399507,4 Z" id="Path" fill="#B70023"></path>
                            <path d="M2.34626039,3.39834025 C1.69396122,3.39834025 1.1634349,2.88746888 1.1634349,2.2593361 C1.1634349,1.63120332 1.69396122,1.12033195 2.34626039,1.12033195 L13.4182825,1.12033195 C13.7393906,1.12033195 14,0.869377593 14,0.560165975 C14,0.250954357 13.7393906,0 13.4182825,0 L2.34626039,0 C1.05252078,0 0,1.01352697 0,2.2593361 C0,3.50514523 1.05252078,4.5186722 2.34626039,4.5186722 L3.56166205,4.5186722 C3.85174515,7.03605809 6.07429363,9 8.76454294,9 L12.2978947,9 L12.2978947,3.39834025 L2.34626039,3.39834025 Z" id="Path" fill="#DF0D22"></path>
                            <path d="M13.3316997,1 L12,1 L12,0 L13.3316997,0 C13.7006015,0 14,0.224 14,0.5 C14,0.776 13.7006015,1 13.3316997,1 Z" id="Path" fill="#B70023"></path>
                            <circle id="Oval" fill="#FFDD4D" cx="8.5" cy="6.5" r="1"></circle>
                            <path d="M17,15.7966399 C16.0248473,16.5543247 14.836861,17 13.5551744,17 L13,17 L13,14.0072925 C13.42299,13.7643312 13.8172007,13.5132466 14.1538526,13.2614234 C14.2572576,13.1838826 14.3522965,13.0963722 14.4383,13 L17,15.7966399 Z" id="Path" fill="#B70023"></path>
                            <g id="Group" transform="translate(8.000000, 4.000000)" fill="#FD5D1C">
                                <path d="M5.19129114,0 L4.55711392,0 L4.55711392,5.84958217 L4.59926582,5.84958217 C5.15768354,5.84958217 5.66889873,6.06141504 6.06144304,6.4105961 L10.1529114,2.20895822 C8.90521519,0.844172702 7.13563291,0 5.19129114,0 L5.19129114,0 Z" id="Path"></path>
                                <path d="M11.9738734,7.60445682 L6.77225316,7.60445682 C6.96968354,8.43997214 6.69767089,9.31659053 6.07598734,9.87257382 L8.96775949,12.8073092 C10.6391013,11.6590362 11.7897722,9.77188301 11.9738734,7.60445682 L11.9738734,7.60445682 Z" id="Path"></path>
                                <path d="M0.022556962,12.7739276 L0.107620253,13.9840111 L4.59926582,13.9840111 L4.59926582,10.8028524 C3.063,11.6284624 1.17956962,12.3681226 0.022556962,12.7739276 L0.022556962,12.7739276 Z" id="Path"></path>
                            </g>
                            <path d="M8,17.5815661 L6.04899506,19.4881409 C5.35093271,20.1705551 4.22094429,20.1705551 3.52248531,19.4885284 C2.8565497,18.8375029 2.78951985,17.7408349 3.54310988,16.9999058 C2.78634684,16.2570392 2.85892946,15.1599837 3.52248531,14.5116708 C4.22530718,13.8249939 5.35569223,13.8339068 6.04899506,14.5116708 L7.91274221,16.3329922 L8,17.5815661 Z" id="Path" fill="#DF0D22"></path>
                        </g>
                    </g>
                </g>
            </g>
        </g>
    </g>
</svg>