<?xml version="1.0" encoding="UTF-8"?>
<svg width="32px" height="32px" viewBox="0 0 32 32" version="1.1" xmlns="http://www.w3.org/2000/svg" xmlns:xlink="http://www.w3.org/1999/xlink">
    <!-- Generator: Sketch 64 (93537) - https://sketch.com -->
    <title>Shape</title>
    <desc>Created with Sketch.</desc>
    <g id="Page-1" stroke="none" stroke-width="1" fill="none" fill-rule="evenodd">
        <g id="Auctions-Copy-3" transform="translate(-1081.000000, -154.000000)" fill="#C08AA8" fill-rule="nonzero">
            <g id="Group-12" transform="translate(1017.000000, 154.000000)">
                <path d="M91.3187901,4.68130828 C85.0758637,-1.56043609 74.9231046,-1.56043609 68.6801782,4.68130828 C62.4399406,10.9230526 62.4399406,21.0786513 68.6801782,27.3203957 C71.8016414,30.4406113 75.9008754,32 80.000172,32 C84.0994685,32 88.1973269,30.4405488 91.3187901,27.3203957 C97.5604033,21.0787138 97.5604033,10.9230526 91.3187901,4.68130828 Z M86.6084379,20.7207923 C87.1305207,21.2428395 87.1305207,22.0867147 86.6084379,22.6087619 C86.3480537,22.8691283 86.0062369,23 85.6643575,23 C85.3225406,23 84.9806612,22.8691283 84.720277,22.6087619 L80,17.8874297 L75.2810374,22.6073849 C75.0193388,22.8677514 74.6774594,22.9986231 74.336957,22.9986231 C73.9951402,22.9986231 73.6532607,22.8677514 73.3928765,22.6073849 C72.8707937,22.0853377 72.8707937,21.2401482 73.3928765,20.7194154 L78.1118391,15.9994602 L73.3915621,11.279505 C72.8694793,10.7574578 72.8694793,9.91226827 73.3915621,9.39153541 C73.9123305,8.8694882 74.7575776,8.8694882 75.2796604,9.39153541 L79.9999374,14.1114906 L84.7202144,9.39153541 C85.2422972,8.8694882 86.0862299,8.8694882 86.6083127,9.39153541 C87.1303955,9.91226827 87.1303955,10.7574578 86.6083127,11.279505 L81.8880357,15.9994602 L86.6084379,20.7207923 Z" id="Shape"></path>
            </g>
        </g>
    </g>
</svg>