<?xml version="1.0" encoding="UTF-8"?>
<svg width="24px" height="24px" viewBox="0 0 24 24" version="1.1" xmlns="http://www.w3.org/2000/svg" xmlns:xlink="http://www.w3.org/1999/xlink">
    <!-- Generator: sketchtool 64 (101010) - https://sketch.com -->
    <title>D0ACDD70-D5D3-4F53-A0E2-04F517B31A1F</title>
    <desc>Created with sketchtool.</desc>
    <g id="Page-1" stroke="none" stroke-width="1" fill="none" fill-rule="evenodd">
        <g id="04-PAYOUT-TOKEN" transform="translate(-959.000000, -382.000000)" fill="#FFFEFB" fill-rule="nonzero">
            <g id="Group-9" transform="translate(435.000000, 362.000000)">
                <g id="signs" transform="translate(524.000000, 20.000000)">
                    <path d="M12,24 C5.38311769,24 0,18.6168823 0,12 C0,5.38311769 5.38311769,0 12,0 C18.6168823,0 24,5.38311769 24,12 C24,18.6168823 18.6168823,24 12,24 Z M12,1.71423337 C6.32849119,1.71423337 1.71423337,6.32849119 1.71423337,12 C1.71423337,17.6715088 6.32849119,22.2857666 12,22.2857666 C17.6715088,22.2857666 22.2857666,17.6715088 22.2857666,12 C22.2857666,6.32849119 17.6715088,1.71423337 12,1.71423337 Z" id="Shape"></path>
                    <path d="M16.1177131,16.9411765 C15.9069542,16.9411765 15.6961954,16.8607783 15.5353995,16.6998061 L7.30014937,8.46453765 C6.97838158,8.14276914 6.97838158,7.62167653 7.30014937,7.30008394 C7.62174125,6.97849135 8.14300861,6.97831544 8.46460049,7.30008394 L16.6998506,15.5353524 C17.0216184,15.8571209 17.0216184,16.3782135 16.6998506,16.6998061 C16.5390547,16.8607783 16.3284718,16.9411765 16.1177131,16.9411765 L16.1177131,16.9411765 Z" id="Path"></path>
                    <path d="M7.88229245,16.9411765 C7.67153227,16.9411765 7.46094801,16.8607789 7.30015098,16.6998077 C6.97838105,16.3782173 6.97838105,15.8569522 7.30015098,15.5353618 L15.5354561,7.3001483 C15.857226,6.97838194 16.378321,6.97838194 16.699915,7.3001483 C17.021509,7.62173874 17.0216849,8.14300379 16.699915,8.46459423 L8.46460987,16.6998077 C8.30381288,16.8607789 8.09305266,16.9411765 7.88229245,16.9411765 L7.88229245,16.9411765 Z" id="Path"></path>
                </g>
            </g>
        </g>
    </g>
</svg>