<?xml version="1.0" encoding="UTF-8"?>
<svg width="24px" height="24px" viewBox="0 0 24 24" version="1.1" xmlns="http://www.w3.org/2000/svg" xmlns:xlink="http://www.w3.org/1999/xlink">
    <!-- Generator: Sketch 64 (93537) - https://sketch.com -->
    <title>926794</title>
    <desc>Created with Sketch.</desc>
    <g id="Page-1" stroke="none" stroke-width="1" fill="none" fill-rule="evenodd">
        <g id="09-PAYOUT-TOKEN" transform="translate(-1173.000000, -345.000000)" fill="#FFFFFF" fill-rule="nonzero">
            <g id="926794" transform="translate(1173.000000, 345.000000)">
                <path d="M24,5.7393913 C24,5.67208696 23.9853913,5.60634783 23.9608696,5.54530435 C23.9509565,5.52078261 23.9337391,5.502 23.9201739,5.47904348 C23.9024348,5.44930435 23.8893913,5.41695652 23.865913,5.39086957 L19.1697391,0.173478261 C19.0711304,0.0633913043 18.9302609,0.000260869565 18.782087,0.000260869565 L17.7615652,0.000260869565 C17.7464348,0.000260869565 17.7307826,0.000260869565 17.7156522,0.000260869565 L9.91252174,0.000260869565 C9.04956522,0.000260869565 8.34730435,0.702521739 8.34730435,1.56547826 L8.34730435,4.17417391 L1.56521739,4.17417391 C0.70226087,4.17417391 0,4.87643478 0,5.7393913 L0,22.4350435 C0,23.298 0.70226087,24.0002609 1.56521739,24.0002609 L14.0869565,24.0002609 C14.949913,24.0002609 15.6521739,23.298 15.6521739,22.4350435 L15.6521739,19.8263478 L22.4347826,19.8263478 C23.2977391,19.8263478 24,19.124087 24,18.2611304 L24,6.78547826 C24,6.78443478 24.0005217,6.78391304 24.0005217,6.78286957 L24,5.7393913 Z M14.6086957,22.4350435 C14.6086957,22.7225217 14.3744348,22.9567826 14.0869565,22.9567826 L1.56521739,22.9567826 C1.27773913,22.9567826 1.04347826,22.7225217 1.04347826,22.4350435 L1.04347826,5.7393913 C1.04347826,5.45191304 1.27773913,5.21765217 1.56521739,5.21765217 L8.34782609,5.21765217 L8.34782609,10.9567826 C8.34782609,11.2447826 8.58156522,11.4785217 8.86956522,11.4785217 L14.6086957,11.4785217 L14.6086957,22.4350435 Z M14.6086957,10.4350435 L9.39130435,10.4350435 L9.39130435,5.21765217 L9.69704348,5.21765217 L14.6086957,10.1298261 L14.6086957,10.4350435 Z M22.9565217,18.2611304 C22.9565217,18.5491304 22.7222609,18.7828696 22.4347826,18.7828696 L15.6521739,18.7828696 L15.6521739,10.9802609 C15.6521739,10.9724348 15.6526957,10.9646087 15.6526957,10.9567826 L15.6521739,9.91330435 C15.6521739,9.91330435 15.6521739,9.91278261 15.6521739,9.91173913 C15.6516522,9.77347826 15.597913,9.64826087 15.5097391,9.5553913 C15.5097391,9.55434783 15.5081739,9.55434783 15.5086957,9.55434783 C15.5086957,9.55434783 15.5081739,9.55382609 15.5081739,9.55330435 C15.5076522,9.55330435 15.5071304,9.55278261 15.5071304,9.55226087 C15.5050435,9.55017391 15.5024348,9.54756522 15.4998261,9.54495652 L10.2824348,4.32756522 C10.1843478,4.22947826 10.0513043,4.17417391 9.91304348,4.17417391 L9.39078261,4.17417391 L9.39078261,1.56547826 C9.39078261,1.278 9.62504348,1.04373913 9.91252174,1.04373913 L17.2168696,1.04373913 L17.2168696,6.78286957 C17.2168696,7.07086957 17.4506087,7.3046087 17.7386087,7.3046087 L22.9565217,7.3046087 L22.9565217,18.2611304 Z M22.9565217,6.26113043 L18.2603478,6.26113043 L18.2603478,1.04373913 L18.549913,1.04373913 L22.9565217,5.93973913 L22.9565217,6.26113043 Z" id="Shape"></path>
            </g>
        </g>
    </g>
</svg>