<?xml version="1.0" encoding="UTF-8"?>
<svg width="24px" height="20px" viewBox="0 0 24 20" version="1.1" xmlns="http://www.w3.org/2000/svg" xmlns:xlink="http://www.w3.org/1999/xlink">
    <!-- Generator: Sketch 64 (93537) - https://sketch.com -->
    <title>846204</title>
    <desc>Created with Sketch.</desc>
    <g id="Page-1" stroke="none" stroke-width="1" fill="none" fill-rule="evenodd">
        <g id="Desktop-HD-Copy-5" transform="translate(-463.000000, -132.000000)" fill="#000000" fill-rule="nonzero">
            <g id="Group-4" transform="translate(463.000000, 130.000000)">
                <g id="846204" transform="translate(0.000000, 2.000000)">
                    <path d="M21.7,0 L4.90555556,0 C3.63888889,0.00564971751 2.61111111,1.05084746 2.61111111,2.34463277 L2.61111111,2.37288136 L2.3,2.37288136 C1.03333333,2.37288136 0.00555555556,3.41242938 0,4.70056497 L0,17.6553672 C0.00555555556,18.9435028 1.02777778,19.9943503 2.3,20 L19.0944444,20 C20.3611111,19.9943503 21.3888889,18.9491525 21.3888889,17.6553672 L21.3888889,17.6271186 L21.7,17.6271186 C22.9666667,17.6271186 23.9944444,16.5875706 24,15.299435 L24,2.34463277 C23.9944444,1.05084746 22.9722222,0.00564971751 21.7,0 Z M19.0944444,18.8700565 L2.3,18.8700565 C1.64444444,18.8644068 1.11666667,18.3220339 1.11111111,17.6553672 L1.11111111,4.70056497 C1.11666667,4.03954802 1.64444444,3.50282486 2.3,3.50282486 L19.0944444,3.50282486 C19.7444444,3.50282486 20.2777778,4.03389831 20.2777778,4.70056497 L20.2777778,7.93220339 C20.1777778,7.95480226 20.0777778,7.96610169 19.9833333,7.96610169 L16.7777778,7.96610169 C15.0333333,7.96610169 13.6166667,9.40677966 13.6166667,11.180791 C13.6166667,12.9548023 15.0333333,14.3954802 16.7777778,14.4011299 L19.9777778,14.4011299 C20.0777778,14.3954802 20.1777778,14.3841808 20.2722222,14.3728814 L20.2777778,17.6553672 C20.2777778,18.3220339 19.75,18.8644068 19.0944444,18.8700565 Z M22.8888889,15.299435 C22.8833333,15.960452 22.3555556,16.4971751 21.7,16.4971751 L21.3888889,16.4971751 L21.3888889,13.9661017 C21.6277778,13.8022599 21.8444444,13.5988701 22.0277778,13.3728814 L22.8888889,12.2429379 L22.8888889,15.299435 Z M21.15,12.6892655 C20.8722222,13.0564972 20.4388889,13.2711864 19.9833333,13.2768362 L16.7777778,13.2768362 C15.6444444,13.2711864 14.7277778,12.3389831 14.7277778,11.1864407 C14.7277778,10.0338983 15.6444444,9.10169492 16.7777778,9.0960452 L19.9777778,9.0960452 C20.3611111,9.0960452 20.7388889,9.01129944 21.0833333,8.84180791 C21.45,8.66666667 21.7722222,8.40112994 22.0222222,8.07344633 L22.8833333,6.94350282 L22.8888889,10.3954802 L21.15,12.6892655 Z M22.8888889,5.0960452 L21.3888889,7.06214689 L21.3888889,4.70056497 C21.3888889,3.41242938 20.3611111,2.37288136 19.0944444,2.37288136 L3.72222222,2.37288136 L3.72222222,2.34463277 C3.72222222,1.6779661 4.25,1.13559322 4.90555556,1.1299435 L21.7,1.1299435 C22.3555556,1.13559322 22.8833333,1.6779661 22.8888889,2.34463277 L22.8888889,5.0960452 Z" id="Shape"></path>
                    <path d="M17.8545455,10.4 L16.5454545,10.4 C16.2454545,10.4 16,10.76 16,11.2 C16,11.64 16.2454545,12 16.5454545,12 L17.8545455,12 C18.1545455,12 18.4,11.64 18.4,11.2 C18.4,10.76 18.1545455,10.4 17.8545455,10.4 Z" id="Path"></path>
                </g>
            </g>
        </g>
    </g>
</svg>