<?xml version="1.0" encoding="UTF-8"?>
<svg width="16px" height="16px" viewBox="0 0 16 16" version="1.1" xmlns="http://www.w3.org/2000/svg" xmlns:xlink="http://www.w3.org/1999/xlink">
    <!-- Generator: Sketch 64 (93537) - https://sketch.com -->
    <title>66275</title>
    <desc>Created with Sketch.</desc>
    <g id="Page-1" stroke="none" stroke-width="1" fill="none" fill-rule="evenodd">
        <g id="Home" transform="translate(-1399.000000, -425.000000)" fill="#FFFFFF" fill-rule="nonzero">
            <g id="Group-2" transform="translate(1407.000000, 450.000000) rotate(90.000000) translate(-1407.000000, -450.000000) translate(1375.000000, 436.000000)">
                <g id="66275" transform="translate(7.000000, 6.000000)">
                    <path d="M7.85391304,3.91965217 C5.68452174,3.91965217 3.91965217,5.68486957 3.91965217,7.85426087 C3.91965217,10.0236522 5.68452174,11.7888696 7.85391304,11.7888696 C10.0229565,11.7888696 11.7881739,10.024 11.7881739,7.85426087 C11.7881739,5.68452174 10.0229565,3.91965217 7.85391304,3.91965217 Z" id="Path"></path>
                    <g id="Group">
                        <path d="M7.85391304,2.76313043 C7.42991304,2.76313043 7.08626087,2.41947826 7.08626087,1.99582609 L7.08626087,0.767652174 C7.08626087,0.343652174 7.42991304,0 7.85391304,0 C8.27791304,0 8.62156522,0.343652174 8.62156522,0.767652174 L8.62156522,1.99582609 C8.62156522,2.41947826 8.27756522,2.76313043 7.85391304,2.76313043 Z" id="Path"></path>
                        <path d="M7.85391304,12.9443478 C7.42991304,12.9443478 7.08626087,13.288 7.08626087,13.712 L7.08626087,14.9398261 C7.08626087,15.3641739 7.42991304,15.7078261 7.85391304,15.7078261 C8.27791304,15.7078261 8.62156522,15.3641739 8.62156522,14.9398261 L8.62156522,13.712 C8.62156522,13.288 8.27756522,12.9443478 7.85391304,12.9443478 Z" id="Path"></path>
                        <path d="M11.4532174,4.25426087 C11.1537391,3.95443478 11.1537391,3.46852174 11.4532174,3.16869565 L12.3217391,2.30017391 C12.6212174,2.00069565 13.1074783,2.00069565 13.4073043,2.30017391 C13.7071304,2.6 13.7071304,3.08626087 13.4073043,3.38573913 L12.5387826,4.25426087 C12.2393043,4.55408696 11.7533913,4.55408696 11.4532174,4.25426087 Z" id="Path"></path>
                        <path d="M4.25426087,11.453913 C3.95443478,11.1537391 3.46852174,11.1537391 3.16869565,11.453913 L2.30017391,12.322087 C2.00069565,12.6215652 2.00034783,13.1081739 2.30017391,13.4076522 C2.6,13.7071304 3.08626087,13.7071304 3.38573913,13.4076522 L4.25426087,12.5387826 C4.55408696,12.2393043 4.55408696,11.7530435 4.25426087,11.453913 Z" id="Path"></path>
                        <path d="M12.9443478,7.85391304 C12.9443478,7.42991304 13.288,7.08626087 13.712,7.08626087 L14.9401739,7.08626087 C15.3641739,7.08626087 15.7078261,7.42991304 15.7078261,7.85391304 C15.7078261,8.27791304 15.3641739,8.62121739 14.9401739,8.62121739 L13.712,8.62121739 C13.288,8.62121739 12.9443478,8.27791304 12.9443478,7.85391304 Z" id="Path"></path>
                        <path d="M2.76313043,7.85391304 C2.76313043,7.42991304 2.41947826,7.08626087 1.99547826,7.08626087 L0.767652174,7.08626087 C0.343652174,7.08626087 0,7.42991304 0,7.85391304 C0,8.27791304 0.343652174,8.62121739 0.767652174,8.62121739 L1.99582609,8.62121739 C2.41947826,8.62121739 2.76313043,8.27791304 2.76313043,7.85391304 Z" id="Path"></path>
                        <path d="M11.4532174,11.453913 C11.7530435,11.1544348 12.2393043,11.1544348 12.5387826,11.453913 L13.4073043,12.3224348 C13.7071304,12.6215652 13.7071304,13.1081739 13.4073043,13.4076522 C13.1074783,13.7071304 12.6215652,13.7071304 12.3217391,13.4076522 L11.4532174,12.5391304 C11.1533913,12.2393043 11.1533913,11.7533913 11.4532174,11.453913 Z" id="Path"></path>
                        <path d="M4.25426087,4.25426087 C4.55408696,3.95443478 4.55408696,3.46852174 4.25426087,3.16869565 L3.38573913,2.30052174 C3.08591304,2.00069565 2.6,2.00069565 2.30017391,2.30052174 C2.00034783,2.6 2.00034783,3.08626087 2.30017391,3.38573913 L3.16869565,4.25426087 C3.46852174,4.55443478 3.95443478,4.55443478 4.25426087,4.25426087 Z" id="Path"></path>
                    </g>
                </g>
            </g>
        </g>
    </g>
</svg>