<?xml version="1.0" encoding="UTF-8"?>
<svg width="20px" height="20px" viewBox="0 0 20 20" version="1.1" xmlns="http://www.w3.org/2000/svg" xmlns:xlink="http://www.w3.org/1999/xlink">
    <!-- Generator: Sketch 64 (93537) - https://sketch.com -->
    <title>846283</title>
    <desc>Created with Sketch.</desc>
    <g id="Page-1" stroke="none" stroke-width="1" fill="none" fill-rule="evenodd">
        <g id="05-PAYOUT-TOKEN" transform="translate(-400.000000, -662.000000)" fill="#000000" fill-rule="nonzero">
            <g id="846283" transform="translate(400.000000, 662.000000)">
                <path d="M18.2048106,1.00375 C17.5845493,0.356484375 16.7598177,0 15.8826023,0 C15.0053868,0 14.1806553,0.356484375 13.560394,1.00375 L1.56908738,13.5163281 C1.49784849,13.590625 1.44506507,13.6840625 1.41811184,13.7891016 L0.0198753881,19.2343359 C-0.0340310799,19.4442188 0.0235065877,19.6681641 0.170738628,19.8217969 C0.281471498,19.9374219 0.43035068,20 0.582898498,20 C0.633173766,20 0.68386082,19.9932422 0.733724303,19.9792969 L5.95209501,18.5203125 C6.05272042,18.4921875 6.14230249,18.4370703 6.21350394,18.3627344 L18.2047731,5.85015625 C18.8250719,5.20289063 19.1666667,4.34234375 19.1666667,3.42699219 C19.1666667,2.5115625 18.8251093,1.65101562 18.2048106,1.00375 Z M13.1736525,3.12765625 L14.2592315,4.26042969 L3.89103362,15.0792969 L2.80545468,13.9465234 L13.1736525,3.12765625 Z M1.40725567,18.5316016 L2.28289886,15.1215625 L4.67522299,17.6178906 L1.40725567,18.5316016 Z M5.80123177,17.0725391 L4.71535336,15.9394531 L15.0835138,5.12054688 L16.1693173,6.25355469 L5.80123177,17.0725391 Z M17.3804908,4.98996094 L16.9937494,5.39351562 L13.9980097,2.2675 L14.3847512,1.86394531 C14.7848195,1.44644531 15.3167715,1.21648438 15.8826023,1.21648438 C16.448433,1.21648438 16.980385,1.44644531 17.3804908,1.86394531 C18.2063828,2.72574219 18.2063828,4.128125 17.3804908,4.98996094 Z" id="Shape"></path>
            </g>
        </g>
    </g>
</svg>