<?xml version="1.0" encoding="UTF-8"?>
<svg width="20px" height="20px" viewBox="0 0 20 20" version="1.1" xmlns="http://www.w3.org/2000/svg" xmlns:xlink="http://www.w3.org/1999/xlink">
    <!-- Generator: Sketch 64 (93537) - https://sketch.com -->
    <title>976974</title>
    <desc>Created with Sketch.</desc>
    <g id="Page-1" stroke="none" stroke-width="1" fill="none" fill-rule="evenodd">
        <g id="Desktop-HD-Copy-8" transform="translate(-782.000000, -502.000000)" fill="#CBCBCB" fill-rule="nonzero">
            <g id="976974" transform="translate(782.000000, 502.000000)">
                <path d="M18.2034834,6.98422701 L19.3789041,6.5527593 C19.2250881,6.1346771 19.0435225,5.72735812 18.8353425,5.33350294 L17.7275538,5.9183953 C17.9096282,6.26273973 18.0686106,6.61878669 18.2034834,6.98422701 Z" id="Path"></path>
                <path d="M18.1345988,4.19816047 C17.875773,3.83596869 17.5933464,3.49119374 17.2891977,3.16614481 L16.3749119,4.02156556 C16.6412916,4.30634051 16.8885714,4.60845401 17.1151076,4.9258317 L18.1345988,4.19816047 Z" id="Path"></path>
                <path d="M19.754638,7.83088063 L19.754638,7.83401174 L18.5316243,8.10516634 C19.5840705,12.8334638 16.604227,17.519726 11.8759295,18.5721722 C7.14763209,19.6246184 2.46136986,16.644775 1.40892368,11.9164384 C0.356438356,7.1881409 3.33632094,2.50191781 8.0646184,1.44943249 C10.6904892,0.864931507 13.4393738,1.51780822 15.5219961,3.22058708 L16.3154207,2.25119374 C12.0380431,-1.23878669 5.74133072,-0.600508806 2.25135029,3.67686888 C-1.23863014,7.95424658 -0.600391389,14.2509198 3.67694716,17.7409393 C7.95428571,21.2309589 14.2510372,20.592681 17.7410176,16.3153033 C19.675499,13.9444618 20.417456,10.8181605 19.754638,7.83088063 Z" id="Path"></path>
                <path d="M5.60450098,10.4378474 L9.97240705,16.747045 L14.3403131,10.4378474 L9.97240705,3.15737769 L5.60450098,10.4378474 Z M9.97240705,14.5464971 L8.13444227,11.8894325 L9.97240705,12.7091585 L11.8103718,11.8894325 L9.97240705,14.5464971 Z M9.97240705,11.3383562 L7.25021526,10.1284932 L9.97240705,5.59213307 L12.6945988,10.1284932 L9.97240705,11.3383562 Z" id="Shape"></path>
            </g>
        </g>
    </g>
</svg>