<?xml version="1.0" encoding="UTF-8"?>
<svg width="83px" height="74px" viewBox="0 0 83 74" version="1.1" xmlns="http://www.w3.org/2000/svg" xmlns:xlink="http://www.w3.org/1999/xlink">
    <!-- Generator: Sketch 64 (93537) - https://sketch.com -->
    <title>1368298</title>
    <desc>Created with Sketch.</desc>
    <g id="Page-1" stroke="none" stroke-width="1" fill="none" fill-rule="evenodd">
        <g id="Home" transform="translate(-477.000000, -523.000000)" fill-rule="nonzero">
            <g id="Group-6" transform="translate(425.000000, 488.000000)">
                <g id="1368298" transform="translate(52.000000, 35.000000)">
                    <polygon id="Path" fill="#0D70B1" points="32 39.0909091 34.7647059 50 73.4705882 50 79 35 65.1764706 39.0909091"></polygon>
                    <polygon id="Path" fill="#8CC5ED" points="46 19 65 19 65 39 46 39"></polygon>
                    <polygon id="Path" fill="#DAEFF6" points="52 23 60 23 60 33 52 33"></polygon>
                    <polygon id="Path" fill="#777777" points="57 11 62 11 62 19 57 19"></polygon>
                    <polygon id="Path" fill="#454545" points="54 9 65 9 65 12 54 12"></polygon>
                    <path d="M42,26 C42,28.2089843 40.2089843,30 38,30 C35.7910155,30 34,28.2089843 34,26 L34,22 L38,22 C40.2089843,22 42,23.7910155 42,26 Z" id="Path" fill="#FFE38F"></path>
                    <path d="M33.9382074,37 C33.5850137,37 33.2461299,36.849333 32.9963575,36.5814805 L29,32.2958409 L30.8836998,30.2757869 L33.7944583,33.3972448 L36.8684793,29 L39,30.7145348 L35.0036425,36.4287209 C34.7727333,36.7614438 34.4182385,36.9693086 34.0325224,37 L33.9382074,37 Z" id="Path" fill="#03AA6F"></path>
                    <path d="M38,30 C42.4179687,30 46,33.837193 46,38.5714286 L46,40 L38,40 L38,30 Z" id="Path" fill="#07B671"></path>
                    <path d="M31.2251206,40 L30.7912917,30.0656853 C30.1943543,17.5309058 21.9434872,6.63926974 10,2.6220231 L10.8757791,0 C23.9082372,4.38104224 32.9137361,16.2630107 33.5661713,29.940378 L34,39.8746925 L31.2251206,40 Z" id="Path" fill="#6F3114"></path>
                    <path d="M13,71 C10.7910155,71 9,69.1563074 9,66.8823529 L9,1 L11.6666667,1 L11.6666667,66.8823529 C11.6666667,67.6403378 12.2636718,68.254902 13,68.254902 C13.7363282,68.254902 14.3333333,67.6403378 14.3333333,66.8823529 L14.3333333,65.5098039 L17,65.5098039 L17,66.8823529 C17,69.1563074 15.2089843,71 13,71 Z" id="Path" fill="#8CC5ED"></path>
                    <g id="Group" transform="translate(0.000000, 38.000000)" fill="#168DE2">
                        <path d="M3.75759531,3.70322556 L3.03315083,1.04005772 C5.39345938,0.433413581 7.82212449,0.140876208 10.2581614,0.169186354 L10.2581614,2.93009125 C8.06673338,2.9011071 5.88200704,3.16128995 3.75759531,3.70322556 Z" id="Path"></path>
                        <path d="M10.2581614,13.9737109 C6.72574035,14.1091947 3.21141369,13.4054875 0,11.9212315 L1.2994431,9.48858841 C4.11211068,10.7558006 7.17943961,11.3462676 10.2581614,11.212806 L10.2581614,13.9737109 Z" id="Path"></path>
                        <path d="M10.2581614,10.4241685 C8.88567076,10.4241685 2.02321747,10.2630707 2.02321747,7.07144861 C2.02321747,3.87982632 8.88567076,3.71805455 10.2581614,3.71805455 C11.6306521,3.71805455 18.4931054,3.87982632 18.4931054,7.07144861 C18.4931054,10.2630707 11.6306521,10.4241685 10.2581614,10.4241685 Z M5.54491578,7.07144861 C7.07891548,7.49879562 8.66652792,7.69831413 10.2581614,7.66326358 C11.8491246,7.69831413 13.4374074,7.49879562 14.9714069,7.07144861 C13.4374074,6.64410142 11.8491246,6.4445829 10.2581614,6.47895945 C8.66652792,6.4445829 7.07891548,6.64410142 5.54491578,7.07144861 Z" id="Shape"></path>
                        <path d="M15.9746385,13.4573892 L15.4458812,10.7490602 C18.964899,10.0547896 21.2380867,8.61030263 21.2380867,7.07144861 C21.2380867,6.30909909 21.8526247,5.69099616 22.6105773,5.69099616 L83.0001662,5.69099616 L83.0001662,8.45190106 L23.7699566,8.45190106 C23.0140144,10.8232055 20.2663525,12.6114578 15.9746385,13.4573892 Z" id="Path"></path>
                    </g>
                    <path d="M28,68.0000194 C31.7986061,73.8488064 39.7393909,75.7349745 45.9303533,72.2592741 L51.1818182,69.3121364 L58,73.2484873 L58,62.7515516 L51.1818182,66.6879025 L45.9303533,63.7401242 C39.7387251,60.2650644 31.7986061,62.1518732 28,68.0000194 Z" id="Path" fill="#F79644"></path>
                    <polygon id="Path" fill="#454545" points="33 66 36 66 36 69 33 69"></polygon>
                </g>
            </g>
        </g>
    </g>
</svg>