<?xml version="1.0" encoding="UTF-8"?>
<svg width="20px" height="20px" viewBox="0 0 20 20" version="1.1" xmlns="http://www.w3.org/2000/svg" xmlns:xlink="http://www.w3.org/1999/xlink">
    <!-- Generator: Sketch 64 (93537) - https://sketch.com -->
    <title>906794</title>
    <desc>Created with Sketch.</desc>
    <g id="Page-1" stroke="none" stroke-width="1" fill="none" fill-rule="evenodd">
        <g id="Desktop-HD-Copy-5" transform="translate(-841.000000, -132.000000)" fill="#000000" fill-rule="nonzero">
            <g id="Group-4" transform="translate(463.000000, 130.000000)">
                <g id="906794" transform="translate(378.000000, 2.000000)">
                    <circle id="Oval" cx="9.9765625" cy="15.9765625" r="1"></circle>
                    <path d="M10,0 C4.47328125,0 0,4.47253906 0,10 C0,15.5267188 4.47253906,20 10,20 C15.5267188,20 20,15.5274609 20,10 C20,4.47328125 15.5274609,0 10,0 Z M10,18.4375 C5.33683594,18.4375 1.5625,14.6637891 1.5625,10 C1.5625,5.33683594 5.33621094,1.5625 10,1.5625 C14.6631641,1.5625 18.4375,5.33621094 18.4375,10 C18.4375,14.6631641 14.6637891,18.4375 10,18.4375 Z" id="Shape"></path>
                    <path d="M10.125,6 C8.401875,6 7,7.401875 7,9.125 C7,9.55648438 7.34976562,9.90625 7.78125,9.90625 C8.21273438,9.90625 8.5625,9.55648438 8.5625,9.125 C8.5625,8.2634375 9.2634375,7.5625 10.125,7.5625 C10.9865625,7.5625 11.6875,8.2634375 11.6875,9.125 C11.6875,9.9865625 10.9865625,10.6875 10.125,10.6875 C9.69351562,10.6875 9.34375,11.0372656 9.34375,11.46875 L9.34375,13.421875 C9.34375,13.8533594 9.69351562,14.203125 10.125,14.203125 C10.5564844,14.203125 10.90625,13.8533594 10.90625,13.421875 L10.90625,12.1511328 C12.2525781,11.8033594 13.25,10.5784766 13.25,9.125 C13.25,7.401875 11.848125,6 10.125,6 Z" id="Path"></path>
                </g>
            </g>
        </g>
    </g>
</svg>