<?xml version="1.0" encoding="UTF-8"?>
<svg width="16px" height="16px" viewBox="0 0 16 16" version="1.1" xmlns="http://www.w3.org/2000/svg" xmlns:xlink="http://www.w3.org/1999/xlink">
    <!-- Generator: Sketch 53.2 (72643) - https://sketchapp.com -->
    <title>noun_Info_407794</title>
    <desc>Created with Sketch.</desc>
    <g id="Page-1" stroke="none" stroke-width="1" fill="none" fill-rule="evenodd">
        <g id="WhaleStreet-V2-B20-Pool-Copy-3" transform="translate(-752.000000, -377.000000)" fill="#4AC593" fill-rule="nonzero">
            <g id="Group-29" transform="translate(663.000000, 365.000000)">
                <g id="noun_Info_407794" transform="translate(89.000000, 12.000000)">
                    <path d="M8,1.28 C11.7056,1.28 14.72,4.2944 14.72,8 C14.72,11.7056 11.7056,14.72 8,14.72 C4.2944,14.72 1.28,11.7056 1.28,8 C1.28,4.2944 4.2944,1.28 8,1.28 L8,1.28 Z M8,0 C3.584,0 0,3.584 0,8 C0,12.416 3.584,16 8,16 C12.416,16 16,12.416 16,8 C16,3.584 12.416,0 8,0 L8,0 Z" id="Shape"></path>
                    <polygon id="Path" points="8.77419355 11.9741935 7.22580645 11.9741935 7.22580645 10.6202274 7.22580645 7.53548387 8.77419355 7.53548387"></polygon>
                    <circle id="Oval" cx="8" cy="4.90322581" r="1.18709677"></circle>
                </g>
            </g>
        </g>
    </g>
</svg>