<?xml version="1.0" encoding="UTF-8"?>
<svg width="264px" height="55px" viewBox="0 0 264 55" version="1.1" xmlns="http://www.w3.org/2000/svg" xmlns:xlink="http://www.w3.org/1999/xlink">
    <!-- Generator: Sketch 64 (93537) - https://sketch.com -->
    <title>logo</title>
    <desc>Created with Sketch.</desc>
    <g id="Page-1" stroke="none" stroke-width="1" fill="none" fill-rule="evenodd">
        <g id="01-PAYOUT-TOKEN" transform="translate(-588.000000, -23.000000)" fill-rule="nonzero">
            <g id="logo" transform="translate(588.000000, 23.000000)">
                <g id="Group" transform="translate(61.000000, 9.000000)" fill="#FFFFFF">
                    <path d="M31.7662968,36.9791304 L31.2404035,36.9791304 C29.8011164,35.8121739 28.48177,33.7078261 27.2915903,30.6469565 C25.7508151,26.7156522 24.726707,24.3721739 24.2377184,23.6069565 C22.8353362,21.3878261 20.9070606,20.2782609 18.4436654,20.2782609 L18.4436654,29.7191304 C20.1597384,30.3408696 21.7743233,31.106087 23.2874199,32.0147826 L24.3945638,30.9817391 L25.0773025,31.6895652 L19.7076547,37.3043478 C19.0064636,36.8643478 18.4067606,36.5008696 17.9177721,36.213913 C17.4287835,35.9269565 17.0412832,35.6878261 16.7644972,35.506087 C15.2883054,34.673913 13.8028873,34.1573913 12.2897907,33.9756522 C12.0130047,33.9373913 11.6993139,33.9086957 11.3671708,33.8991304 C11.0350276,33.88 10.6936582,33.8704348 10.3430627,33.8704348 C7.53829818,33.8704348 4.13383074,34.6547826 0.129660369,36.213913 L0.0743031748,35.9365217 C2.52847211,32.5504348 5.70228458,30.2452174 9.60496676,29.0017391 C9.60496676,24.3052174 6.70794027,20.4886957 0.923113485,17.5426087 L9.44812138,10.9426087 L9.50347857,8.60869565 C9.54038337,5.2226087 8.10109632,3.52956522 5.18561743,3.52956522 C4.41061671,3.52956522 3.29424663,3.73043478 1.81805479,4.13217391 L1.81805479,3.42434783 C3.88472337,1.60695652 6.13591593,0.69826087 8.55318008,0.69826087 C10.3430627,0.69826087 11.7638973,1.27217391 12.815684,2.42 C13.8674707,3.56782609 14.485626,5.06956522 14.6609238,6.92521739 L24.034742,0.487826087 C24.5975402,1.21478261 25.2526003,2.10434783 26.0091486,3.16608696 C26.7656969,4.21826087 27.6145073,5.42347826 28.5648058,6.77217391 L31.2496297,10.5886957 L23.8778966,16.0504348 C26.5442682,17.7243478 28.527901,19.6756522 29.828795,21.8852174 C30.3546884,22.8321739 31.0927843,24.7452174 32.0430828,27.6147826 C32.7442739,29.7286957 33.6576676,31.3452174 34.7832639,32.473913 L35.945765,31.546087 L36.5731465,32.1965217 L31.7662968,36.9791304 Z M9.39276419,12.4252174 L5.44395101,15.1513043 L9.39276419,18.4226087 L9.39276419,12.4252174 Z M17.3457477,6.47565217 L14.9746146,8.11130435 L14.9746146,29.0113043 C15.8141987,29.0113043 16.6076518,29.1165217 17.3457477,29.3365217 L17.3457477,6.47565217 Z M20.0767027,4.4573913 L18.4436654,5.60521739 L18.4436654,18.8626087 L26.027601,13.0756522 L20.0767027,4.4573913 Z" id="Shape"></path>
                    <path d="M42.6624379,36.653913 C40.2728523,35.3434783 39.1657084,33.5069565 39.3502324,31.1443478 L39.4055896,30.1591304 L39.4055896,15.9165217 L37.8832668,14.2234783 L41.7767227,10.8947826 L45.8270241,14.386087 L44.5076777,15.9165217 L44.5076777,31.0295652 C44.6829754,31.7565217 45.171964,32.34 45.9838695,32.78 L46.934168,32.1295652 L47.4600613,32.6173913 L42.6624379,36.653913 Z M41.6106512,8.43652174 L40.9279124,8.43652174 L42.1919017,2.86956522 L46.0853577,2.86956522 L41.6106512,8.43652174 Z" id="Shape"></path>
                    <path d="M66.1338882,16.6817391 L66.1338882,29.7765217 C66.1338882,30.9721739 66.7520435,32.5791304 67.979128,34.5782609 C69.2431172,36.5104348 69.8704988,37.7634783 69.8704988,38.3469565 L69.8704988,38.5669565 C69.695201,39.8391304 68.4865689,41.0443478 66.2353764,42.1730435 C65.2850779,42.6417391 64.3440056,43.12 63.3937071,43.5886957 C60.6904307,42.8234783 58.4669168,42.4408696 56.7047128,42.4408696 C54.7764372,42.4408696 52.7005424,42.8234783 50.4954808,43.5886957 L49.3883369,42.6034783 L55.0716755,35.8886957 L50.1725639,32.2826087 L50.1725639,14.386087 C50.7999454,14.2426087 51.4642317,14.0417391 52.1469704,13.7834783 C52.8297092,13.5252174 53.5585789,13.2191304 54.3335796,12.8556522 C54.5088774,12.7791304 54.9240564,12.5782609 55.5698903,12.2530435 C56.2157242,11.9278261 57.1014393,11.4686957 58.2270356,10.8852174 L66.2815073,14.7017391 L70.2303205,12.1382609 L70.2303205,17.3226087 L66.1338882,16.6817391 Z M63.1907307,35.726087 C62.138944,34.1286957 61.5023363,32.3973913 61.2993599,30.5417391 L53.7707815,39.16 C54.8225682,38.94 56.3172124,38.8347826 58.245488,38.8347826 C60.8103713,38.8347826 63.5966834,39.3226087 66.6136505,40.3078261 L66.7151387,39.6573913 C65.0267443,38.0217391 63.855017,36.7113043 63.1907307,35.726087 Z M61.4469791,16.5191304 L54.813342,14.5582609 L54.813342,30.053913 L58.1809046,32.3973913 L61.4469791,28.9634783 L61.4469791,16.5191304 Z" id="Shape"></path>
                    <path d="M85.8779541,38.6721739 C83.4883685,40.3078261 80.4714014,41.493913 76.8270528,42.2208696 L76.6609812,41.8956522 C78.3770543,41.2069565 79.7794365,40.5947826 80.8496756,40.0686957 C81.9199147,39.5426087 82.6949154,39.0930435 83.1931302,38.7295652 C85.0568224,37.313913 85.9794423,35.2956522 85.9794423,32.6747826 L85.9794423,17.3895652 C85.7672397,16.4043478 85.1029534,15.5530435 83.9773571,14.826087 L79.8163413,18.0495652 L79.8163413,31.5269565 L81.1818188,33.1052174 L77.1776484,36.7113043 L73.2288352,33.3826087 L74.7511581,31.5269565 L74.7511581,14.4434783 L72.1678223,14.4434783 L72.1678223,11.7652174 L74.8526462,11.7652174 L74.8526462,8.54173913 C74.8526462,6.1026087 74.2252647,4.28521739 72.9612754,3.08 L73.0627636,2.97478261 C74.3636577,3.48173913 75.4523492,4.08434783 76.3288381,4.77304348 L77.1222912,4.71565217 C78.6630664,2.89826087 80.3514609,1.98956522 82.1782483,1.98956522 C80.6651516,3.33826087 79.9178295,4.99304348 79.9178295,6.95391304 L79.9178295,16.6147826 L87.2895625,10.9904348 C89.6053385,12.5878261 90.7678396,14.7208696 90.7678396,17.38 L90.7678396,30.7043478 C90.7678396,33.9086957 89.1348023,36.5582609 85.8779541,38.6721739 Z" id="Path"></path>
                    <path d="M99.6618954,14.4434783 L99.6618954,30.3217391 L102.448208,32.7226087 L103.924399,31.5269565 L104.50565,32.2921739 L99.7726098,36.5486957 C97.2815361,34.4730435 95.0672483,33.0956522 93.1389727,32.3973913 C94.0892712,31.3834783 94.5598073,30.0730435 94.5598073,28.466087 L94.5598073,14.386087 L92.7145675,14.386087 L92.7699247,13.6208696 L99.6157644,4.72521739 L99.6711216,11.66 L105.040769,11.66 L105.040769,14.4434783 L99.6618954,14.4434783 L99.6618954,14.4434783 Z" id="Path"></path>
                    <path d="M124.508049,12.8652174 L119.719652,19.58 L124.664895,22.746087 L124.664895,32.7895652 C123.474715,33.1913043 122.330666,33.7365217 121.241975,34.4252174 C120.965189,34.6069565 120.559236,34.8747826 120.033343,35.2191304 C119.50745,35.5634783 118.880068,35.993913 118.141972,36.5008696 C116.315185,35.553913 114.543754,35.0852174 112.827681,35.0852174 C111.176192,35.0852174 109.404762,35.506087 107.513391,36.3382609 L106.830652,35.8504348 L113.095241,26.5721739 L108.030058,23.6643478 L108.030058,15.2565217 C110.382739,14.166087 112.541669,12.6547826 114.50685,10.7226087 C117.459233,12.2147826 119.7012,12.9608696 121.241975,12.9608696 L122.607452,12.7982609 C123.096441,12.7982609 123.557751,12.6069565 123.97293,12.2243478 C124.388109,11.8417391 124.600311,11.4017391 124.600311,10.8852174 C124.600311,10.5217391 124.212811,9.83304348 123.447036,8.80956522 L123.179477,8.32173913 C123.179477,7.73826087 123.603882,7.45130435 124.443466,7.45130435 C125.495253,7.45130435 126.02127,8.12086957 126.02127,9.46956522 C126.030372,10.2826087 125.522931,11.4017391 124.508049,12.8652174 Z M116.979471,23.3391304 L111.139287,31.1921739 C112.089585,30.9721739 113.224408,30.8669565 114.562207,30.8669565 C116.388994,30.8669565 118.280365,31.3547826 120.245545,32.34 L120.300903,25.08 L116.979471,23.3391304 Z M119.562807,16.1365217 C119.073818,16.1747826 118.547925,16.193913 117.985127,16.193913 C116.370542,16.193913 114.617564,15.7921739 112.716967,14.9886957 L112.66161,21.2634783 L115.81697,22.9565217 L120.919058,15.973913 C120.503879,16.0408696 120.051795,16.0982609 119.562807,16.1365217 Z" id="Shape"></path>
                    <path d="M142.037828,38.6721739 C139.648242,40.3078261 136.631275,41.493913 132.986926,42.2208696 L132.830081,41.8956522 C134.546154,41.2069565 135.948536,40.5947826 137.018775,40.0686957 C138.089014,39.5426087 138.864015,39.0930435 139.36223,38.7295652 C141.225922,37.313913 142.148542,35.2956522 142.148542,32.6747826 L142.148542,17.3895652 C141.936339,16.4043478 141.272053,15.5530435 140.146457,14.826087 L135.985441,18.0495652 L135.985441,31.5269565 L137.350918,33.1052174 L133.346748,36.7113043 L129.397935,33.3826087 L130.920258,31.5269565 L130.920258,14.4434783 L128.336922,14.4434783 L128.336922,11.7652174 L131.021746,11.7652174 L131.021746,8.54173913 C131.021746,6.1026087 130.394364,4.28521739 129.130375,3.08 L129.231863,2.97478261 C130.532757,3.48173913 131.621449,4.08434783 132.497938,4.77304348 L133.291391,4.71565217 C134.832166,2.89826087 136.52056,1.98956522 138.347348,1.98956522 C136.834251,3.33826087 136.086929,4.99304348 136.086929,6.95391304 L136.086929,16.6147826 L143.458662,10.9904348 C145.774438,12.5878261 146.936939,14.7208696 146.936939,17.38 L146.936939,30.7043478 C146.927713,33.9086957 145.303902,36.5582609 142.037828,38.6721739 Z" id="Path"></path>
                    <path d="M163.83011,36.5486957 C161.588143,35.3147826 160.462547,33.3443478 160.462547,30.6565217 L153.303017,36.606087 L153.035457,36.606087 C150.544383,34.2052174 149.298846,31.8808696 149.298846,29.6234783 C149.298846,26.2756522 151.033372,22.9852174 154.511649,19.7426087 L151.98367,12.9226087 L152.666409,12.98 C154.631589,13.1617391 156.439924,12.453913 158.091414,10.8469565 L165.564635,13.4104348 L167.040827,12.2052174 L167.142315,12.4252174 C166.302731,13.773913 165.703028,15.1704348 165.352432,16.6243478 L165.352432,30.9243478 C165.60154,31.8330435 166.090528,32.3973913 166.828624,32.6173913 L167.778923,32.1295652 L168.360173,32.6173913 L163.83011,36.5486957 Z M160.462547,16.3565217 L152.83248,13.4104348 L155.046768,19.6278261 L160.471773,22.353913 L160.471773,16.3565217 L160.462547,16.3565217 Z M160.508678,23.3391304 L155.037542,20.4982609 C154.02266,22.3921739 153.515219,24.1713043 153.515219,25.8452174 C153.515219,28.3226087 154.530101,30.6086957 156.569091,32.7226087 L160.517904,29.2313043 L160.517904,23.3391304 L160.508678,23.3391304 Z" id="Shape"></path>
                    <path d="M183.094413,17.9347826 L179.939053,14.7113043 L177.890837,16.3469565 L177.890837,30.4843478 L180.732506,32.78 L182.254829,31.6321739 L182.882211,32.2826087 L178.093813,36.5391304 C176.128633,34.7886957 173.886667,33.4113043 171.358688,32.3878261 C172.308986,31.5843478 172.779523,30.273913 172.779523,28.4565217 L172.779523,17.5043478 C172.779523,16.5573913 172.355117,15.7252174 171.515533,14.9982609 L170.620592,15.6008696 L170.039342,14.9982609 L174.514048,10.9043478 C175.60274,11.4878261 176.359288,12.0330435 176.774467,12.54 C177.337265,13.1617391 177.687861,14.0321739 177.826254,15.1608696 L183.140544,10.9617391 L186.563464,14.8356522 L183.094413,17.9347826 Z" id="Path"></path>
                    <path d="M193.778352,25.08 L193.778352,30.7521739 L198.197701,32.7704348 L201.675978,30.4747826 L202.257229,31.1252174 C201.805145,31.4121739 201.334609,31.7278261 200.864072,32.0530435 C200.393536,32.3782609 199.886095,32.7417391 199.360202,33.1434783 L194.784007,36.4721739 C192.431327,35.1234783 190.014062,34.2147826 187.522989,33.746087 C188.500966,32.693913 188.999181,31.3643478 188.999181,29.7573913 L188.999181,15.2086957 C190.226265,14.6252174 191.425671,13.9747826 192.606624,13.2478261 C193.778352,12.5208696 194.950079,11.7365217 196.103354,10.9043478 L202.893836,17.9443478 C199.018833,20.7373913 195.983413,23.1191304 193.778352,25.08 Z M193.722994,14.4434783 L193.722994,23.8269565 L198.723594,19.7330435 L193.722994,14.4434783 Z" id="Shape"></path>
                </g>
                <g id="Group">
                    <g fill="#FFFFFF">
                        <path d="M48.7849502,36.0762712 C47.7234131,36.0762712 46.8265973,36.4677966 46.1951657,37.2135593 C45.8016649,37.679661 45.5362807,38.2669492 45.3898618,38.9381356 C44.8224885,38.4720339 44.145301,38.220339 43.4132065,38.220339 C42.2144017,38.220339 40.924085,39.0686441 40.924085,40.9423729 C40.924085,41.6322034 41.3084347,42.3313559 41.8941103,42.7415254 C42.4065765,43.0957627 43.0197057,43.1610169 43.5687766,42.9279661 C43.9348238,42.7694915 44.1086963,42.35 43.9531262,41.9771186 C43.7975561,41.6042373 43.3857529,41.4271186 43.0197057,41.5855932 C42.9739498,41.6042373 42.8641356,41.6508475 42.6902631,41.5389831 C42.4797859,41.3991525 42.3516694,41.1288136 42.3516694,40.9610169 C42.3516694,39.7864407 43.1569734,39.7025424 43.4040553,39.7025424 C44.5937089,39.7025424 45.1610822,40.8771186 45.3807106,41.4737288 C45.3807106,41.4737288 45.3807106,41.4737288 45.3807106,41.4737288 C45.3898618,41.5016949 45.3990129,41.529661 45.4081641,41.5576271 C46.057898,43.4779661 45.6735484,46.3677966 43.6785908,47.9618644 C43.6694396,47.9711864 43.6694396,47.9711864 43.6602884,47.9805085 C39.2768723,51.429661 33.8868262,53.340678 28.2222447,53.340678 C22.5576631,53.340678 17.1584659,51.429661 12.7750498,47.9805085 C12.7658986,47.9711864 12.7658986,47.9711864 12.7567474,47.9618644 C10.7617898,46.3677966 10.3774402,43.4779661 11.0271741,41.5576271 C11.2193489,40.9983051 11.7867222,39.7025424 13.0312829,39.7025424 C13.2783648,39.7025424 14.0836688,39.7957627 14.0836688,40.9610169 C14.0836688,41.1381356 13.9555523,41.3991525 13.7450751,41.5389831 C13.5712026,41.6508475 13.4613884,41.6042373 13.4156325,41.5855932 C13.0495853,41.4271186 12.6286309,41.6042373 12.482212,41.9771186 C12.3266419,42.35 12.5005143,42.7788136 12.8665616,42.9279661 C13.4156325,43.1610169 14.0287617,43.0957627 14.5412279,42.7415254 C15.1360547,42.340678 15.5112532,41.6322034 15.5112532,40.9423729 C15.5112532,39.0686441 14.2209365,38.220339 13.0221317,38.220339 C12.2900372,38.220339 11.6128497,38.4720339 11.0454764,38.9381356 C10.8990575,38.2576271 10.6245221,37.670339 10.2401724,37.2135593 C9.60874089,36.4677966 8.71192508,36.0762712 7.65038799,36.0762712 C5.7835469,36.0762712 4.25529954,37.5491525 4.25529954,39.3576271 C4.25529954,40.9237288 5.19787127,41.9677966 6.60715326,41.9677966 C7.53142263,41.9677966 8.02558644,41.5762712 8.28181953,41.240678 C8.63871562,40.7745763 8.73937862,40.1313559 8.56550617,39.4415254 C8.46484317,39.05 8.08049353,38.8169492 7.6961439,38.9194915 C7.31179426,39.0220339 7.08301472,39.4135593 7.18367772,39.8050847 C7.24773599,40.0381356 7.22943363,40.2432203 7.15622417,40.3457627 C7.07386354,40.4483051 6.88168872,40.5042373 6.61630444,40.5042373 C5.82015163,40.5042373 5.70118626,39.7771186 5.70118626,39.3483051 C5.70118626,38.4720339 6.45158317,37.5305085 7.65953917,37.5305085 C8.3001219,37.5305085 8.8034369,37.7449153 9.16033299,38.1644068 C9.67279917,38.770339 9.8558228,39.7864407 9.68195035,41.0262712 C9.68195035,41.0355932 9.67279917,41.0449153 9.67279917,41.0542373 C9.3067519,42.1355932 9.2060889,43.4779661 9.44401962,44.8016949 C9.16948417,44.4847458 8.89494871,44.1677966 8.62956444,43.8415254 C8.38248253,43.5338983 7.92492344,43.4779661 7.62293444,43.7389831 C7.32094544,43.990678 7.27518953,44.4567797 7.52227144,44.7644068 C12.6194797,51.1313559 20.1692047,54.7762712 28.2222447,54.7762712 C36.2752847,54.7762712 43.8250097,51.1220339 48.9222179,44.7644068 C49.1692998,44.4567797 49.1235439,43.990678 48.8215549,43.7389831 C48.5195659,43.4872881 48.0620068,43.5338983 47.8149249,43.8415254 C47.5495407,44.1677966 47.2841564,44.4940678 47.0004697,44.8016949 C47.2384005,43.4779661 47.1377375,42.1449153 46.7716902,41.0542373 C46.7716902,41.0449153 46.762539,41.0355932 46.762539,41.0262712 C46.5886666,39.7864407 46.7716902,38.770339 47.2841564,38.1644068 C47.6410525,37.7449153 48.1443675,37.5305085 48.7849502,37.5305085 C49.9929062,37.5305085 50.7433031,38.4720339 50.7433031,39.3483051 C50.7433031,39.7771186 50.6243377,40.5042373 49.8281849,40.5042373 C49.5628007,40.5042373 49.3614747,40.4483051 49.2882652,40.3457627 C49.2150557,40.2432203 49.2059046,40.0474576 49.2608117,39.8050847 C49.3614747,39.4135593 49.1235439,39.0127119 48.7483455,38.9194915 C48.3639958,38.8169492 47.970495,39.059322 47.8789832,39.4415254 C47.7051107,40.1313559 47.8057737,40.7745763 48.1626698,41.240678 C48.4189029,41.5762712 48.9130667,41.9677966 49.8373361,41.9677966 C51.2466181,41.9677966 52.1891898,40.9144068 52.1891898,39.3576271 C52.1800387,37.5491525 50.6517913,36.0762712 48.7849502,36.0762712 Z" id="Path"></path>
                        <path d="M40.1096298,42.3220339 C40.4116188,42.0610169 40.4573748,41.6042373 40.2102928,41.2966102 C39.9540598,40.9889831 39.5056519,40.9423729 39.2036629,41.1940678 C36.1288658,43.7855932 32.2304623,45.2118644 28.2313959,45.2118644 C24.2323294,45.2118644 20.333926,43.7855932 17.2591289,41.1940678 C16.9571399,40.9330508 16.4995808,40.979661 16.2524989,41.2966102 C15.9962658,41.6042373 16.0420217,42.070339 16.3531619,42.3220339 C19.6841921,45.1279661 23.9120381,46.6661017 28.240547,46.6661017 C32.569056,46.6661017 36.7694485,45.1279661 40.1096298,42.3220339 Z" id="Path"></path>
                        <path d="M3.29442545,21.5059322 C4.02651999,21.5059322 4.62134681,20.9 4.62134681,20.1542373 C4.62134681,19.8466102 4.52068381,19.5762712 4.35596254,19.3432203 C5.9848729,14.4864407 9.07797235,10.1423729 13.1319459,7.05677966 C17.515362,3.71949153 22.7315356,1.95762712 28.2130935,1.95762712 C33.7038026,1.95762712 38.9199762,3.71949153 43.2942411,7.05677966 C47.3482147,10.1423729 50.4413141,14.4864407 52.0702245,19.3432203 C51.9055032,19.5669492 51.8048402,19.8466102 51.8048402,20.1542373 C51.8048402,20.9 52.399667,21.5059322 53.1317616,21.5059322 C53.8638561,21.5059322 54.4586829,20.9 54.4586829,20.1542373 C54.4586829,19.5016949 54.010275,18.9610169 53.406297,18.8305085 C51.6767237,13.7220339 48.4189029,9.14491525 44.145301,5.89152542 C39.514803,2.36779661 34.0057916,0.503389831 28.2039423,0.503389831 C22.4020931,0.503389831 16.8930816,2.36779661 12.2625836,5.89152542 C7.98898172,9.14491525 4.72200981,13.7220339 3.00158763,18.8305085 C2.39760963,18.9610169 1.94920172,19.5016949 1.94920172,20.1542373 C1.95835291,20.9 2.55317972,21.5059322 3.29442545,21.5059322 Z" id="Path"></path>
                        <path d="M28.2222447,8.59491525 C22.6217214,8.59491525 17.3689431,11.1211864 13.7999822,15.5211864 C13.5437491,15.8288136 13.589505,16.2949153 13.9006452,16.5466102 C14.2026342,16.8076271 14.6601933,16.7610169 14.9072752,16.4440678 C18.2017006,12.379661 23.051827,10.0491525 28.2222447,10.0491525 C33.3926624,10.0491525 38.2427888,12.379661 41.5372142,16.4440678 C41.6744819,16.6211864 41.8849591,16.7050847 42.0862851,16.7050847 C42.2510064,16.7050847 42.4065765,16.6491525 42.5438442,16.5372881 C42.8458332,16.2762712 42.8915891,15.8194915 42.6445072,15.5118644 C39.0755463,11.1211864 33.8136168,8.59491525 28.2222447,8.59491525 Z" id="Path"></path>
                        <path d="M53.6716813,31.7694915 C53.1958198,31.7694915 52.8114702,32.1610169 52.8114702,32.6457627 C52.8114702,33.1305085 53.1958198,33.5220339 53.6716813,33.5220339 C54.1475427,33.5220339 54.5318924,33.1305085 54.5318924,32.6457627 C54.5318924,32.1610169 54.1383916,31.7694915 53.6716813,31.7694915 Z" id="Path"></path>
                        <path d="M45.3624082,36.2720339 C45.3624082,35.7872881 44.9780586,35.3957627 44.5021971,35.3957627 C44.0263357,35.3957627 43.641986,35.7872881 43.641986,36.2720339 C43.641986,36.7567797 44.0263357,37.1483051 44.5021971,37.1483051 C44.9780586,37.1483051 45.3624082,36.7567797 45.3624082,36.2720339 Z" id="Path"></path>
                        <path d="M54.5227412,30.2220339 C54.2848105,30.2220339 54.0926356,30.4177966 54.0926356,30.6601695 C54.0926356,30.9025424 54.2848105,31.0983051 54.5227412,31.0983051 C54.7606719,31.0983051 54.9528467,30.9025424 54.9528467,30.6601695 C54.9528467,30.4177966 54.7606719,30.2220339 54.5227412,30.2220339 Z" id="Path"></path>
                        <path d="M54.714916,28.8610169 C54.5501947,28.8610169 54.412927,29.0008475 54.412927,29.1686441 C54.412927,29.3364407 54.5501947,29.4762712 54.714916,29.4762712 C54.8796373,29.4762712 55.016905,29.3364407 55.016905,29.1686441 C55.016905,29.0008475 54.8887885,28.8610169 54.714916,28.8610169 Z" id="Path"></path>
                        <path d="M54.5227412,27.9474576 C54.5227412,28.05 54.6051018,28.1338983 54.7057648,28.1338983 C54.8064278,28.1338983 54.8887885,28.05 54.8887885,27.9474576 C54.8887885,27.8449153 54.8064278,27.7610169 54.7057648,27.7610169 C54.6051018,27.7610169 54.5227412,27.8449153 54.5227412,27.9474576 Z" id="Path"></path>
                        <path d="M54.6325554,26.8194915 C54.5593459,26.8194915 54.4952876,26.8847458 54.4952876,26.959322 C54.4952876,27.0338983 54.5593459,27.0991525 54.6325554,27.0991525 C54.7057648,27.0991525 54.7698231,27.0338983 54.7698231,26.959322 C54.7698231,26.8754237 54.7057648,26.8194915 54.6325554,26.8194915 Z" id="Path"></path>
                        <path d="M3.45914672,32.6457627 C3.45914672,32.1610169 3.07479709,31.7694915 2.59893563,31.7694915 C2.12307418,31.7694915 1.73872454,32.1610169 1.73872454,32.6457627 C1.73872454,33.1305085 2.12307418,33.5220339 2.59893563,33.5220339 C3.07479709,33.5127119 3.45914672,33.1211864 3.45914672,32.6457627 Z" id="Path"></path>
                        <path d="M12.6286309,36.2720339 C12.6286309,35.7872881 12.2442813,35.3957627 11.7684198,35.3957627 C11.2925583,35.3957627 10.9082087,35.7872881 10.9082087,36.2720339 C10.9082087,36.7567797 11.2925583,37.1483051 11.7684198,37.1483051 C12.2442813,37.1483051 12.6286309,36.7567797 12.6286309,36.2720339 Z" id="Path"></path>
                        <path d="M2.17798127,30.6601695 C2.17798127,30.4177966 1.98580645,30.2220339 1.74787572,30.2220339 C1.509945,30.2220339 1.31777018,30.4177966 1.31777018,30.6601695 C1.31777018,30.9025424 1.509945,31.0983051 1.74787572,31.0983051 C1.98580645,31.0983051 2.17798127,30.8932203 2.17798127,30.6601695 Z" id="Path"></path>
                        <path d="M1.25371191,29.1686441 C1.25371191,29.3364407 1.39097963,29.4762712 1.55570091,29.4762712 C1.72042218,29.4762712 1.85768991,29.3364407 1.85768991,29.1686441 C1.85768991,29.0008475 1.72042218,28.8610169 1.55570091,28.8610169 C1.39097963,28.8610169 1.25371191,29.0008475 1.25371191,29.1686441 Z" id="Path"></path>
                        <ellipse id="Oval" cx="1.56485209" cy="27.9474576" rx="1" ry="1"></ellipse>
                        <ellipse id="Oval" cx="1.63806154" cy="26.959322" rx="1" ry="1"></ellipse>
                        <path d="M55.6483366,22.7364407 C55.4287082,22.6898305 55.0718121,22.6711864 54.6966136,22.7923729 C54.3214152,22.9042373 53.9279144,23.1559322 53.6167742,23.4635593 C53.4520529,23.6220339 53.3147852,23.7991525 53.1958198,23.9855932 C52.3905158,22.5686441 51.0269897,21.4779661 49.4529865,21.0864407 C49.3889282,21.0677966 49.3248699,21.0584746 49.2608117,21.0398305 C45.5637342,19.6601695 45.3624082,17.5533898 45.3624082,17.1338983 C45.3624082,16.2762712 46.0487468,15.3533898 47.064528,15.3533898 C47.7600178,15.3533898 48.2999376,15.9686441 48.2999376,16.5 C48.2999376,17.4228814 47.9887974,17.4881356 47.5495407,17.4881356 C47.1560398,17.4881356 46.8357485,17.8144068 46.8357485,18.2152542 C46.8357485,18.6161017 47.1560398,18.9423729 47.5495407,18.9423729 C48.2084257,18.9423729 49.7275219,18.7 49.7275219,16.490678 C49.7275219,15.1016949 48.4829612,13.8805085 47.0553768,13.8805085 C45.1793846,13.8805085 43.9165215,15.5584746 43.9165215,17.1152542 C43.9165215,17.6652542 44.0629404,18.7745763 45.0421168,19.9491525 C45.3990129,20.3779661 45.8291185,20.7694915 46.3232823,21.1330508 C45.3624082,21.4686441 44.4930459,22.0932203 43.8890679,22.9228814 C43.8341608,22.9974576 43.7792538,23.0813559 43.7243467,23.1559322 C41.8483544,16.2669492 35.6072484,11.1864407 28.2222447,11.1864407 C20.8463922,11.1864407 14.6144373,16.2483051 12.6926892,23.1466102 C12.6469333,23.0813559 12.6011773,23.0067797 12.5554214,22.9508475 C11.9514434,22.1118644 11.07293,21.4872881 10.1029047,21.1516949 C10.5970685,20.7974576 11.0180229,20.4059322 11.374919,19.9771186 C12.3540954,18.7932203 12.5005143,17.6932203 12.5005143,17.1432203 C12.5005143,15.5771186 11.2376513,13.9084746 9.36165899,13.9084746 C7.93407462,13.9084746 6.6895139,15.129661 6.6895139,16.5186441 C6.6895139,18.7279661 8.21776126,18.970339 8.86749517,18.970339 C9.26099599,18.970339 9.58128735,18.6440678 9.58128735,18.2432203 C9.58128735,17.8423729 9.26099599,17.5161017 8.86749517,17.5161017 C8.42823844,17.5161017 8.11709826,17.4415254 8.11709826,16.5279661 C8.11709826,15.9966102 8.65701799,15.3813559 9.3525078,15.3813559 C10.368289,15.3813559 11.0546276,16.3042373 11.0546276,17.1618644 C11.0546276,17.5813559 10.8624528,19.7067797 7.10131708,21.0957627 C7.06471235,21.1050847 7.03725881,21.1144068 7.00065408,21.1237288 C5.41749963,21.5245763 4.05397354,22.6152542 3.24866954,24.0508475 C3.12970418,23.8550847 2.99243645,23.6686441 2.818564,23.5008475 C2.50742381,23.1838983 2.113923,22.9322034 1.73872454,22.8110169 C1.36352609,22.6805085 1.00663,22.7084746 0.787001635,22.7457627 C0.55822209,22.8110169 0.439256727,22.8949153 0.439256727,22.9601695 C0.439256727,23.0161017 0.55822209,23.090678 0.722943363,23.1932203 C0.887664635,23.3144068 1.09814182,23.4542373 1.26286309,23.6686441 C1.61975918,24.0788136 1.83938754,24.6567797 2.03156236,25.1601695 C2.19628363,25.579661 2.34270254,25.9991525 2.49827263,26.3347458 L2.47081909,26.5025424 L2.47081909,26.6516949 L2.45251672,27.0338983 C2.45251672,27.1644068 2.46166791,27.2855932 2.46166791,27.4067797 L2.47997027,27.779661 C2.48912145,27.9008475 2.516575,28.0313559 2.52572618,28.1525424 C2.66299391,29.15 3.00158763,30.1101695 3.51405381,30.9677966 C4.01736881,31.8254237 4.69455627,32.5618644 5.4815579,33.1491525 C5.43580199,33.1677966 5.3808949,33.1771186 5.33513899,33.1957627 C4.92333581,33.3542373 4.49323027,33.6245763 4.11803181,33.9694915 C3.74283336,34.3144068 3.45914672,34.7432203 3.27612309,35.1533898 C3.09309945,35.5635593 3.03819236,35.9550847 3.02904118,36.2254237 C3.04734354,36.5050847 3.09309945,36.6635593 3.15715772,36.6728814 C3.20291363,36.6822034 3.31272781,36.5516949 3.44999554,36.3652542 C3.60556563,36.1788136 3.79774045,35.9364407 4.06312472,35.7127119 C4.31935781,35.4889831 4.62134681,35.2745763 4.95078936,35.1067797 C5.27108072,34.9389831 5.60052326,34.8084746 5.89336108,34.6872881 C6.46988554,34.4635593 7.01895644,34.3144068 7.45821317,34.1745763 C7.68699272,34.2584746 7.92492344,34.3237288 8.17200535,34.379661 C8.64786681,34.4915254 9.14203062,34.5474576 9.63619444,34.5661017 C10.1303583,34.5847458 10.6336733,34.5381356 11.1186859,34.4355932 C11.6036985,34.3423729 12.0704088,34.1932203 12.5188167,34.0067797 C12.7567474,33.9042373 12.9763758,33.8016949 13.2051553,33.6805085 C15.5844626,39.7491525 21.4137654,44.0559322 28.2130935,44.0559322 C35.0124216,44.0559322 40.8508756,39.7491525 43.2210317,33.6711864 C43.4589624,33.8016949 43.6877419,33.9042373 43.9348238,34.0161017 C44.3832318,34.2025424 44.849942,34.3516949 45.3349547,34.4449153 C45.8199673,34.5381356 46.3232823,34.5940678 46.8174461,34.5754237 C47.3116099,34.5661017 47.7966226,34.5008475 48.2816352,34.3889831 C48.5195659,34.3330508 48.7483455,34.2677966 48.977125,34.1932203 C49.4163817,34.3330508 49.9654527,34.4822034 50.5328259,34.6966102 C50.8256637,34.8177966 51.1551063,34.9483051 51.4662465,35.1161017 C51.7865378,35.2838983 52.0793757,35.4983051 52.3356087,35.7220339 C52.600993,35.9457627 52.7840166,36.1881356 52.9487379,36.3745763 C53.0860056,36.5610169 53.204971,36.6915254 53.2690293,36.6728814 C53.3147852,36.6635593 53.3605411,36.5050847 53.3696923,36.2347458 C53.3605411,35.9644068 53.3147852,35.5728814 53.1317616,35.1720339 C52.9578891,34.7618644 52.6742025,34.3237288 52.3081552,33.9788136 C51.9421079,33.6338983 51.5120024,33.3542373 51.1001992,33.1957627 C51.0544433,33.1771186 51.0178386,33.1677966 50.9720827,33.1491525 C51.7682355,32.5618644 52.4454229,31.8161017 52.9487379,30.9677966 C53.4612041,30.1101695 53.7997978,29.140678 53.9370656,28.1525424 C53.9553679,28.0313559 53.9828215,27.9008475 53.9828215,27.779661 L54.0011238,27.4067797 C54.0011238,27.2762712 54.0194262,27.1550847 54.010275,27.0338983 L53.9919726,26.6516949 L53.9919726,26.4652542 L53.9645191,26.2694915 L53.9553679,26.2322034 C54.1017868,25.8966102 54.2390546,25.5050847 54.3946246,25.1135593 C54.5776483,24.6194915 54.815579,24.0415254 55.1724751,23.640678 C55.3463476,23.4355932 55.5476736,23.2957627 55.7123948,23.1745763 C55.8771161,23.0720339 55.9960815,22.9788136 55.9960815,22.9135593 C55.9960815,22.8762712 55.8771161,22.8016949 55.6483366,22.7364407 Z M12.5279679,32.4220339 C12.3540954,32.5152542 12.1710718,32.5991525 11.9880482,32.6737288 C11.6128497,32.8228814 11.2376513,32.9440678 10.8441504,33.0186441 C10.4598008,33.0932203 10.0754512,33.1305085 9.68195035,33.1118644 C9.28844953,33.1025424 8.89494871,33.0466102 8.51059908,32.9533898 C6.97320054,32.5898305 5.60967445,31.5644068 4.80437045,30.1940678 C4.40171845,29.5135593 4.12718299,28.7491525 4.01736881,27.9567797 C3.90755463,27.1550847 3.93500818,26.3720339 4.18209008,25.6355932 C4.65795154,24.1627119 5.89336108,22.9601695 7.37585253,22.5966102 C7.74189981,22.4847458 8.12624944,22.4567797 8.5014479,22.4474576 C8.86749517,22.4474576 9.23354244,22.5033898 9.58128735,22.6059322 C10.267626,22.829661 10.9082087,23.2677966 11.3383143,23.8737288 C11.5579426,24.1720339 11.7409663,24.4983051 11.8507804,24.8525424 C11.9605946,25.2067797 12.0429553,25.570339 12.0429553,25.9432203 C12.0704088,26.6610169 11.8141757,27.3601695 11.3383143,27.8915254 C10.871604,28.4135593 10.1944165,28.7398305 9.49892671,28.7771186 L9.37081017,28.7864407 L9.2518448,28.7771186 C9.16948417,28.7771186 9.08712353,28.7584746 9.0047629,28.7491525 C8.92240226,28.7398305 8.84919281,28.7118644 8.76683217,28.6932203 C8.69362271,28.6652542 8.61126208,28.6372881 8.53805262,28.609322 C8.24521481,28.4694915 7.97067935,28.2737288 7.76935335,28.0033898 C7.56802735,27.7423729 7.42160844,27.4347458 7.36670135,27.1084746 C7.35755017,27.0245763 7.33924781,26.940678 7.33924781,26.8567797 L7.33009663,26.7355932 C7.33009663,26.6983051 7.33009663,26.6610169 7.33009663,26.6237288 C7.33924781,26.4745763 7.36670135,26.3161017 7.42160844,26.1762712 C7.44906199,26.0830508 7.4948179,25.9991525 7.54057381,25.9059322 C7.76935335,26.2974576 8.19030772,26.5677966 8.66616917,26.5677966 C9.38911253,26.5677966 9.97478817,25.9711864 9.97478817,25.2347458 C9.97478817,24.4983051 9.38911253,23.9016949 8.66616917,23.9016949 C8.62041326,23.9016949 8.56550617,23.9016949 8.51975026,23.9110169 C8.33672662,23.920339 8.16285417,23.9389831 7.97983053,23.9762712 C7.70529508,24.0415254 7.43991081,24.1627119 7.1928289,24.3118644 C6.94574699,24.470339 6.73526981,24.6661017 6.54309499,24.8898305 C6.35092017,25.1135593 6.20450126,25.3745763 6.09468708,25.6542373 C5.9848729,25.9338983 5.92081463,26.2228814 5.89336108,26.5211864 C5.89336108,26.5957627 5.8842099,26.670339 5.8842099,26.7449153 L5.89336108,26.959322 C5.89336108,27.0991525 5.92081463,27.2389831 5.93911699,27.3788136 C6.03977999,27.9381356 6.2868619,28.4694915 6.62545563,28.9169492 C6.96404935,29.3644068 7.42160844,29.7186441 7.93407462,29.9610169 C8.43738962,30.2033898 9.02306526,30.2966102 9.56298499,30.259322 C10.5055567,30.2220339 11.4206749,29.8305085 12.1253159,29.1966102 C12.2259789,30.2686441 12.4273049,31.3127119 12.7201427,32.3101695 C12.6743868,32.3474576 12.6011773,32.3847458 12.5279679,32.4220339 Z M28.2222447,42.620339 C20.1142976,42.620339 13.5071443,35.8991525 13.5071443,27.6305085 C13.5071443,19.3618644 20.1051464,12.640678 28.2222447,12.640678 C36.3301918,12.640678 42.937345,19.3618644 42.937345,27.6305085 C42.937345,35.8991525 36.3301918,42.620339 28.2222447,42.620339 Z M52.4454229,27.9474576 C52.3356087,28.7398305 52.0702245,29.5042373 51.6584213,30.1847458 C50.8531173,31.5550847 49.4895912,32.5805085 47.9521927,32.9440678 C47.567843,33.0372881 47.1743422,33.0838983 46.7808414,33.1025424 C46.3873406,33.1211864 46.0121421,33.0838983 45.6186413,33.009322 C45.2342917,32.9347458 44.849942,32.8135593 44.4747436,32.6644068 C44.2917199,32.5898305 44.1086963,32.5059322 43.9348238,32.4127119 C43.8524632,32.3661017 43.7701026,32.3288136 43.6968931,32.2822034 C43.9897309,31.2754237 44.1910569,30.2313559 44.2825688,29.15 C44.9872098,29.8025424 45.9206303,30.2033898 46.8723532,30.240678 C47.4122729,30.2686441 47.9887974,30.1754237 48.5012636,29.9423729 C49.0137297,29.709322 49.4712888,29.3550847 49.8098826,28.8983051 C50.1484763,28.4508475 50.3955582,27.9194915 50.4962212,27.3601695 C50.5145236,27.220339 50.5419771,27.0805085 50.5419771,26.940678 L50.5511283,26.7262712 C50.5511283,26.6516949 50.5419771,26.5771186 50.5419771,26.5025424 C50.5145236,26.2042373 50.4596165,25.9059322 50.3406511,25.6355932 C50.2308369,25.3652542 50.084418,25.1042373 49.8922432,24.8711864 C49.7000684,24.6474576 49.4895912,24.4516949 49.2425093,24.2932203 C48.9954274,24.1440678 48.7300431,24.0228814 48.4555077,23.9576271 C48.2816352,23.9110169 48.0986116,23.8923729 47.9155879,23.8923729 C47.869832,23.8830508 47.8240761,23.8830508 47.769169,23.8830508 C47.0462257,23.8830508 46.46055,24.479661 46.46055,25.2161017 C46.46055,25.9525424 47.0462257,26.5491525 47.769169,26.5491525 C48.2541817,26.5491525 48.6659848,26.2788136 48.8947644,25.8872881 C48.9405203,25.9711864 48.9862762,26.0644068 49.0137297,26.1576271 C49.0686368,26.2974576 49.0960904,26.4559322 49.1052416,26.6050847 C49.1052416,26.6423729 49.1052416,26.679661 49.1052416,26.7169492 L49.0960904,26.8381356 C49.0960904,26.9220339 49.077788,27.0059322 49.0686368,27.0898305 C49.0137297,27.4161017 48.8673108,27.7237288 48.6659848,27.9847458 C48.4646588,28.2457627 48.1901234,28.4508475 47.8972856,28.590678 C47.8240761,28.6279661 47.7417155,28.6466102 47.668506,28.6745763 C47.5861454,28.6932203 47.5129359,28.7211864 47.4305753,28.7305085 C47.3482147,28.7398305 47.265854,28.7584746 47.1834934,28.7584746 L47.064528,28.7677966 L46.9364115,28.7584746 C46.2409217,28.7211864 45.5637342,28.3949153 45.0970239,27.8728814 C44.6211625,27.3508475 44.3649294,26.6516949 44.3923829,25.9245763 C44.3923829,25.5516949 44.4747436,25.1788136 44.5845578,24.8338983 C44.6943719,24.479661 44.8773956,24.1533898 45.0970239,23.8550847 C45.5362807,23.2584746 46.1677122,22.820339 46.8540508,22.5872881 C47.2017957,22.4847458 47.567843,22.4288136 47.9338903,22.4288136 C48.3090887,22.4474576 48.6934384,22.4754237 49.0594857,22.5779661 C50.5419771,22.9415254 51.7773867,24.1440678 52.2532481,25.6169492 C52.5277836,26.3627119 52.5552371,27.1457627 52.4454229,27.9474576 Z" id="Shape"></path>
                    </g>
                    <ellipse id="Oval" fill="#E2B224" cx="28.2222447" cy="27.5559322" rx="14.8889728" ry="15.1669492"></ellipse>
                    <path d="M36.6779367,38.1923729 L36.3576453,38.1923729 C35.488283,37.5025424 34.6921302,36.2533898 33.9691869,34.4355932 C33.0357663,32.1050847 32.4226371,30.7067797 32.1206481,30.259322 C31.2695882,28.9449153 30.1073881,28.2830508 28.6248967,28.2830508 L28.6248967,33.8855932 C29.6589802,34.2491525 30.6381567,34.7059322 31.5532749,35.2466102 L32.2213111,34.6313559 L32.6331143,35.0508475 L29.393596,38.3881356 C28.9726416,38.1271186 28.6065943,37.9127119 28.3137565,37.7355932 C28.0209187,37.5677966 27.782988,37.4279661 27.6182667,37.3161017 C26.7306021,36.8220339 25.8246351,36.5144068 24.9186681,36.4118644 C24.7447956,36.3932203 24.561772,36.3745763 24.360446,36.3652542 C24.15912,36.3559322 23.9486428,36.3466102 23.7381656,36.3466102 C22.045197,36.3466102 19.9861811,36.8127119 17.5702691,37.7355932 L17.5428155,37.5771186 C19.025307,35.5728814 20.9470552,34.2025424 23.2989089,33.4661017 C23.2989089,30.6788136 21.5510331,28.4135593 18.0552817,26.6610169 L23.2073971,22.7457627 L23.2348506,21.3567797 C23.253153,19.3525424 22.3837907,18.3457627 20.6267638,18.3457627 C20.1600535,18.3457627 19.4828661,18.4669492 18.5952014,18.7 L18.5952014,18.2711864 C19.8489133,17.1898305 21.2032882,16.6491525 22.6674773,16.6491525 C23.7473168,16.6491525 24.6075279,16.9847458 25.2389594,17.6652542 C25.870391,18.3457627 26.2455894,19.240678 26.3554036,20.340678 L32.0199851,16.5186441 C32.3585789,16.9474576 32.7520797,17.4788136 33.2096388,18.1033898 C33.6671979,18.7279661 34.179664,19.4457627 34.7561885,20.2381356 L36.3759477,22.5033898 L31.9284733,25.7474576 C33.5390813,26.7449153 34.7378861,27.8915254 35.5248878,29.2152542 C35.8451791,29.7745763 36.2844359,30.9118644 36.8609603,32.6177966 C37.2819147,33.8669492 37.8401368,34.8271186 38.5173242,35.4983051 L39.212814,34.9483051 L39.5971637,35.3398305 L36.6779367,38.1923729 Z M23.1707923,23.6127119 L20.7823339,25.2347458 L23.1707923,27.1737288 L23.1707923,23.6127119 Z M27.9660116,20.079661 L26.5384272,21.0584746 L26.5384272,33.4661017 C27.0508934,33.4661017 27.5267549,33.5313559 27.9660116,33.6618644 L27.9660116,20.079661 Z M29.6223755,18.8864407 L28.6340479,19.5669492 L28.6340479,27.4347458 L33.2096388,24.0042373 L29.6223755,18.8864407 Z" id="Shape" fill="#232160"></path>
                </g>
            </g>
        </g>
    </g>
</svg>