<?xml version="1.0" encoding="UTF-8"?>
<svg width="36px" height="36px" viewBox="0 0 36 36" version="1.1" xmlns="http://www.w3.org/2000/svg" xmlns:xlink="http://www.w3.org/1999/xlink">
    <!-- Generator: Sketch 64 (93537) - https://sketch.com -->
    <title>660376</title>
    <desc>Created with Sketch.</desc>
    <g id="Page-1" stroke="none" stroke-width="1" fill="none" fill-rule="evenodd">
        <g id="2-col-Treasury-Landing-Copy" transform="translate(-60.000000, -54.000000)" fill="#EB0F0F" fill-rule="nonzero">
            <g id="660376" transform="translate(60.000000, 54.000000)">
                <path d="M18,0 C8.07447656,0 0,8.07447656 0,18 C0,27.9255234 8.07447656,36 18,36 C27.9255234,36 36,27.9255234 36,18 C36,8.07447656 27.9255234,0 18,0 Z M25.5000234,25.5000234 L10.4999766,25.5000234 C9.6705,25.5000234 9,24.8280469 9,24.0000469 C9,23.1720469 9.6705,22.5000703 10.4999766,22.5000703 L25.4999531,22.5000703 C26.3294297,22.5000703 26.9999297,23.1720469 26.9999297,24.0000469 C26.9999297,24.8279766 26.3295,25.5000234 25.5000234,25.5000234 Z M25.5000234,19.4999766 L10.4999766,19.4999766 C9.6705,19.4999766 9,18.828 9,18 C9,17.172 9.6705,16.5000234 10.4999766,16.5000234 L25.4999531,16.5000234 C26.3294297,16.5000234 26.9999297,17.172 26.9999297,18 C26.9999297,18.828 26.3295,19.4999766 25.5000234,19.4999766 Z M25.5000234,13.5 L10.4999766,13.5 C9.6705,13.5 9,12.8280234 9,12.0000234 C9,11.1720234 9.6705,10.5000469 10.4999766,10.5000469 L25.4999531,10.5000469 C26.3294297,10.5000469 26.9999297,11.1720234 26.9999297,12.0000234 C26.9999297,12.8280234 26.3295,13.5 25.5000234,13.5 Z" id="Shape"></path>
            </g>
        </g>
    </g>
</svg>