<?xml version="1.0" encoding="UTF-8"?>
<svg width="15px" height="14px" viewBox="0 0 15 14" version="1.1" xmlns="http://www.w3.org/2000/svg" xmlns:xlink="http://www.w3.org/1999/xlink">
    <!-- Generator: Sketch 64 (93537) - https://sketch.com -->
    <title>Group 4</title>
    <desc>Created with Sketch.</desc>
    <g id="Page-1" stroke="none" stroke-width="1" fill="none" fill-rule="evenodd" stroke-linecap="round" stroke-linejoin="round">
        <g id="2-col-Treasury-Landing-Copy" transform="translate(-1219.000000, -65.000000)" fill-rule="nonzero" stroke-width="0.25">
            <g id="Group-5" transform="translate(1219.000000, 63.000000)">
                <g id="Group-4" transform="translate(0.000000, 2.000000)">
                    <g id="Group-3" transform="translate(0.714286, 0.714286)">
                        <polygon id="Path" stroke="#E17726" fill="#E17726" points="12.5550464 0 7.39522143 3.81790357 8.35473571 1.56788893"></polygon>
                        <polygon id="Path" stroke="#E27625" fill="#E27625" points="0.653258571 -3.48927236e-16 5.76714286 3.85353571 4.85359286 1.567885"></polygon>
                        <polygon id="Path" stroke="#E27625" fill="#E27625" points="10.6971857 8.85240714 9.32430714 10.9497143 12.2640179 11.7591179 13.1061464 8.89825357"></polygon>
                        <polygon id="Path" stroke="#E27625" fill="#E27625" points="0.107136071 8.89825357 0.944133929 11.7591179 3.87875714 10.9497143 2.51096214 8.85240714"></polygon>
                        <polygon id="Path" stroke="#E27625" fill="#E27625" points="3.72051429 5.309425 2.90394107 6.54134643 5.81302857 6.6737 5.71607143 3.54302143"></polygon>
                        <polygon id="Path" stroke="#E27625" fill="#E27625" points="9.48761786 5.30946429 7.46149643 3.50742071 7.39514286 6.67373929 10.3042107 6.54138571"></polygon>
                        <polygon id="Path" stroke="#E27625" fill="#E27625" points="3.87879643 10.9497143 5.63954286 10.0996107 4.12378214 8.91860357"></polygon>
                        <polygon id="Path" stroke="#E27625" fill="#E27625" points="7.56874643 10.0996107 9.32438571 10.9497143 9.08450714 8.91860357"></polygon>
                        <polygon id="Path" stroke="#D5BFB2" fill="#D5BFB2" points="9.32438571 10.9497929 7.56874643 10.0996893 7.71162857 11.2399571 7.69630714 11.7235643"></polygon>
                        <polygon id="Path" stroke="#D5BFB2" fill="#D5BFB2" points="3.87879643 10.9497929 5.51198214 11.7235643 5.50176786 11.2399571 5.63954286 10.0996893"></polygon>
                        <polygon id="Path" stroke="#233447" fill="#233447" points="5.54254643 8.16522143 4.08288571 7.73763571 5.11382143 7.26420357"></polygon>
                        <polygon id="Path" stroke="#233447" fill="#233447" points="7.66570357 8.16522143 8.09442857 7.26420357 9.13047143 7.73763571"></polygon>
                        <polygon id="Path" stroke="#CC6228" fill="#CC6228" points="3.87875714 10.9497143 4.13395714 8.85240714 2.51098571 8.89825357"></polygon>
                        <polygon id="Path" stroke="#CC6228" fill="#CC6228" points="9.07425357 8.85240714 9.32434643 10.9497143 10.697225 8.89825357"></polygon>
                        <polygon id="Path" stroke="#CC6228" fill="#CC6228" points="10.3042107 6.54130714 7.39514286 6.67366071 7.665625 8.16522143 8.09435 7.26416429 9.13039286 7.73759643"></polygon>
                        <polygon id="Path" stroke="#CC6228" fill="#CC6228" points="4.08288571 7.73759643 5.11382143 7.26416429 5.54254643 8.16522143 5.81302857 6.67366071 2.90394107 6.54130714"></polygon>
                        <polygon id="Path" stroke="#E27525" fill="#E27525" points="2.90403536 6.54130714 4.12382143 8.91860357 4.08296429 7.73759643"></polygon>
                        <polygon id="Path" stroke="#E27525" fill="#E27525" points="9.13047143 7.73759643 9.08454643 8.91860357 10.3043286 6.54130714"></polygon>
                        <polygon id="Path" stroke="#E27525" fill="#E27525" points="5.81318571 6.67366071 5.54266429 8.16522143 5.88460714 9.92651786 5.961175 7.60524286"></polygon>
                        <polygon id="Path" stroke="#E27525" fill="#E27525" points="7.39522143 6.67366071 7.2523 7.600175 7.32376071 9.92651786 7.66570357 8.16522143"></polygon>
                        <polygon id="Path" stroke="#F5841F" fill="#F5841F" points="7.66570357 8.16526071 7.32376071 9.92655714 7.56874643 10.09965 9.08454643 8.91864286 9.13047143 7.73763571"></polygon>
                        <polygon id="Path" stroke="#F5841F" fill="#F5841F" points="4.08288571 7.73763571 4.12374286 8.91864286 5.63950357 10.09965 5.88448929 9.92655714 5.54254643 8.16526071"></polygon>
                        <polygon id="Path" stroke="#C0AC9D" fill="#C0AC9D" points="7.69634643 11.723525 7.71162857 11.2399179 7.57896071 11.1279143 5.62936786 11.1279143 5.50176786 11.2399179 5.51198214 11.723525 3.87879643 10.9497536 4.45040357 11.4180786 5.60893929 12.2173071 7.59424286 12.2173071 8.75788571 11.4180786 9.32438571 10.9497536"></polygon>
                        <polygon id="Path" stroke="#161616" fill="#161616" points="7.56870714 10.0996107 7.32372143 9.92655714 5.88448929 9.92655714 5.63954286 10.0996107 5.50172857 11.2399179 5.62932857 11.1279143 7.57892143 11.1279143 7.71162857 11.2399179"></polygon>
                        <polygon id="Path" stroke="#763E1A" fill="#763E1A" points="12.7744571 4.06732857 13.2082893 1.95985821 12.5550071 2.09356342e-15 7.56874643 3.69065714 9.48769643 5.309425 12.1977429 6.09847857 12.7948857 5.40107857 12.5346179 5.21270357 12.9479821 4.83603214 12.631575 4.591675 13.0449786 4.27605357"></polygon>
                        <polygon id="Path" stroke="#763E1A" fill="#763E1A" points="-6.28069025e-15 1.95985821 0.438915714 4.06732857 0.158215357 4.27605357 0.576714286 4.591675 0.2602875 4.83603214 0.673683214 5.21270357 0.413395714 5.40107857 1.01052679 6.09847857 3.72059286 5.309425 5.63954286 3.69065714 0.653270357 2.09356342e-15"></polygon>
                        <polygon id="Path" stroke="#F5841F" fill="#F5841F" points="12.1977821 6.09843929 9.48773571 5.309425 10.3043286 6.54134643 9.08454643 8.91860357 10.6973036 8.89825357 13.106225 8.89825357"></polygon>
                        <polygon id="Path" stroke="#F5841F" fill="#F5841F" points="3.72051429 5.309425 1.01048357 6.09843929 0.107136071 8.89825357 2.51096214 8.89825357 4.12370357 8.91860357 2.903945 6.54134643"></polygon>
                        <polygon id="Path" stroke="#F5841F" fill="#F5841F" points="7.39518214 6.6737 7.56870714 3.69061786 8.35465714 1.56788107 4.85355357 1.56788107 5.63950357 3.69061786 5.81302857 6.6737 5.87938214 7.61035 5.88448929 9.92655714 7.32372143 9.92655714 7.32882857 7.61035"></polygon>
                    </g>
                </g>
            </g>
        </g>
    </g>
</svg>