<?xml version="1.0" encoding="UTF-8"?>
<svg width="16px" height="16px" viewBox="0 0 16 16" version="1.1" xmlns="http://www.w3.org/2000/svg" xmlns:xlink="http://www.w3.org/1999/xlink">
    <!-- Generator: Sketch 64 (93537) - https://sketch.com -->
    <title>702471</title>
    <desc>Created with Sketch.</desc>
    <g id="Page-1" stroke="none" stroke-width="1" fill="none" fill-rule="evenodd">
        <g id="Home" transform="translate(-1399.000000, -459.000000)" fill="#000000" fill-rule="nonzero">
            <g id="Group-2" transform="translate(1407.000000, 450.000000) rotate(90.000000) translate(-1407.000000, -450.000000) translate(1375.000000, 436.000000)">
                <g id="702471" transform="translate(49.000000, 14.000000) scale(-1, -1) rotate(90.000000) translate(-49.000000, -14.000000) translate(41.000000, 6.000000)">
                    <path d="M15.6106608,9.11731997 C15.4469842,9.07622934 15.2833075,9.11731997 15.1400904,9.22004653 C14.6081413,9.67204343 13.9943539,10.0418591 13.3191877,10.2884028 C12.6849406,10.5349466 11.9893149,10.6582185 11.2527699,10.6582185 C9.59554381,10.6582185 8.08153476,9.98022313 6.99717694,8.89132152 C5.91281911,7.8024199 5.23765291,6.2820667 5.23765291,4.6178963 C5.23765291,3.91935564 5.3604104,3.24136029 5.56500622,2.62500089 C5.79006162,1.96755085 6.11741492,1.37173676 6.54706614,0.858103924 C6.73120237,0.632105475 6.69028321,0.303380458 6.46522781,0.118472636 C6.32201074,0.0157460686 6.15833409,-0.0253445585 5.99465743,0.0157460686 C4.25559299,0.48828828 2.74158395,1.53609927 1.65722612,2.93318059 C0.61378745,4.3097166 0,6.01497762 0,7.86405584 C0,10.103495 0.900221594,12.1374811 2.37331148,13.6167436 C3.84640136,15.0960062 5.85144036,16 8.10199435,16 C9.98427586,16 11.7233403,15.34255 13.1145919,14.2536483 C14.526303,13.1442014 15.5492821,11.5622123 15.9789333,9.75422468 C16.0607716,9.4665903 15.897095,9.17895591 15.6106608,9.11731997 Z" id="Path"></path>
                </g>
            </g>
        </g>
    </g>
</svg>