<?xml version="1.0" encoding="UTF-8"?>
<svg width="85px" height="83px" viewBox="0 0 85 83" version="1.1" xmlns="http://www.w3.org/2000/svg" xmlns:xlink="http://www.w3.org/1999/xlink">
    <!-- Generator: Sketch 64 (93537) - https://sketch.com -->
    <title>901604</title>
    <desc>Created with Sketch.</desc>
    <g id="Page-1" stroke="none" stroke-width="1" fill="none" fill-rule="evenodd">
        <g id="Home" transform="translate(-1089.000000, -514.000000)" fill-rule="nonzero">
            <g id="Group-6" transform="translate(425.000000, 488.000000)">
                <g id="901604" transform="translate(664.000000, 26.000000)">
                    <rect id="Rectangle" fill="#90C9F5" x="2" y="57" width="83" height="25"></rect>
                    <rect id="Rectangle" fill="#1E81CE" x="2" y="73" width="83" height="8"></rect>
                    <rect id="Rectangle" fill="#5AAAE7" x="2" y="65" width="83" height="8"></rect>
                    <polygon id="Path" fill="#EBE5DD" points="70 46 70 38.777858 77 33 84 38.777858 84 46"></polygon>
                    <polygon id="Path" fill="#F2F2F2" points="53 50 55.8333333 21 67.1666667 21 70 50"></polygon>
                    <rect id="Rectangle" fill="#EBE5DD" x="53" y="15" width="17" height="6"></rect>
                    <g id="Group" transform="translate(56.000000, 0.000000)" fill="#F40E34">
                        <path d="M0.128784615,9.89140351 L10.9595538,9.89140351 C10.9595538,6.79087719 8.53498462,4.27736842 5.54416923,4.27736842 C2.55335385,4.27736842 0.128784615,6.79070175 0.128784615,9.89140351 Z" id="Path"></path>
                        <rect id="Rectangle" x="4.19032308" y="0.0668421053" width="2.70769231" height="4.21052632"></rect>
                    </g>
                    <rect id="Rectangle" fill="#F2F2F2" x="58" y="9" width="8" height="6"></rect>
                    <rect id="Rectangle" fill="#FFD422" x="76" y="40" width="2" height="6"></rect>
                    <rect id="Rectangle" fill="#D4C8B8" x="60" y="38" width="10" height="7"></rect>
                    <polygon id="Path" fill="#F40E34" points="60 39 69.9166667 39 77 33 67.0833333 33"></polygon>
                    <g id="Group" transform="translate(57.000000, 12.000000)" fill="#FFD422">
                        <rect id="Rectangle" x="2.86163415" y="0.0667445255" width="2.73170732" height="2.80291971"></rect>
                        <rect id="Rectangle" x="4.2274878" y="16.8842628" width="2.73170732" height="2.80291971"></rect>
                        <rect id="Rectangle" x="1.49578049" y="11.2784234" width="2.73170732" height="2.80291971"></rect>
                        <rect id="Rectangle" x="0.129926829" y="21.0886423" width="2.73170732" height="2.80291971"></rect>
                    </g>
                    <path d="M85,45 L61.0740741,45 C58.7421759,45 56.8518519,46.880375 56.8518519,49.2 L56.8518519,49.2 L51.2222222,49.2 C48.8903241,49.2 47,51.080375 47,53.4 L47,66 L85,66 L85,45 Z" id="Path" fill="#FF9811"></path>
                    <path d="M72.4782609,58.5238095 C72.4782609,55.4731131 74.969913,53 78.0434783,53 L85,53 L85,82 L66.9135652,82 L66.9130435,76.4761905 L53,76.4761905 L53,71.1457143 C53,67.9881667 55.5787826,65.4285714 58.76,65.4285714 L69.6956522,65.4285714 C71.2325217,65.4285714 72.4782609,64.1921012 72.4782609,62.6666667 L72.4782609,58.5238095" id="Path" fill="#69C229"></path>
                    <path d="M67,75.5 C67,72.4624531 69.4796731,70 72.5384615,70 L85,70 L85,81 L67.0005192,81 L67,75.5 Z" id="Path" fill="#FF9811"></path>
                    <g id="Group" transform="translate(51.000000, 55.000000)" fill="#CA7300">
                        <rect id="Rectangle" x="0.129926829" y="0.0643076923" width="2.73170732" height="10.8307692"></rect>
                        <rect id="Rectangle" x="4.2274878" y="4.12584615" width="2.73170732" height="5.41538462"></rect>
                    </g>
                    <g id="Group" transform="translate(75.000000, 60.000000)" fill="#5EAC24">
                        <rect id="Rectangle" x="0.129926829" y="2.87368421" width="2.73170732" height="7.01754386"></rect>
                        <rect id="Rectangle" x="4.2274878" y="0.0666666667" width="2.73170732" height="9.8245614"></rect>
                    </g>
                    <g id="Group" transform="translate(70.000000, 76.000000)" fill="#CA7300">
                        <rect id="Rectangle" x="0.129926829" y="1.52363636" width="2.73170732" height="4.36363636"></rect>
                        <rect id="Rectangle" x="4.2274878" y="0.0690909091" width="2.73170732" height="5.81818182"></rect>
                    </g>
                    <path d="M13,57 C13,49.8203889 18.5963542,44 25.5,44 C32.4036458,44 38,49.8203889 38,57 L13,57 Z" id="Path" fill="#FF9811"></path>
                    <g id="Group" transform="translate(1.000000, 0.000000)" fill="#FFD422">
                        <rect id="Rectangle" x="23.4566928" y="28.6481562" width="2.78498294" height="10.8888889"></rect>
                        <rect id="Rectangle" x="23.4566928" y="20.4814896" width="2.78498294" height="5.44444444"></rect>
                        <rect id="Rectangle" x="23.4566928" y="0.0648229167" width="2.78498294" height="17.6944444"></rect>
                        <polygon id="Rectangle" transform="translate(13.706286, 37.005526) rotate(149.999272) translate(-13.706286, -37.005526) " points="12.2673187 31.5162324 15.0365498 31.5434084 15.1452537 42.4948199 12.3760226 42.4676439"></polygon>
                        <polygon id="Rectangle" transform="translate(8.143973, 27.585751) rotate(149.999272) translate(-8.143973, -27.585751) " points="6.73218121 24.83431 9.50141236 24.861486 9.55576433 30.3371917 6.78653319 30.3100157"></polygon>
                        <polygon id="Rectangle" transform="translate(3.266614, 19.632093) rotate(147.729200) translate(-3.266614, -19.632093) " points="1.84332486 15.7689073 4.61030503 15.7972394 4.68990409 23.4952785 1.92292392 23.4669463"></polygon>
                        <polygon id="Rectangle" transform="translate(5.556108, 44.981278) rotate(120.000728) translate(-5.556108, -44.981278) " points="4.13283009 39.429228 6.87068295 39.456404 6.97938689 50.5333285 4.24153404 50.5061526"></polygon>
                        <polygon id="Rectangle" transform="translate(44.138846, 44.975202) rotate(150.007099) translate(-44.138846, -44.975202) " points="38.5865801 43.5518837 49.6639399 43.6605745 49.6911126 46.3985202 38.6137528 46.2898294"></polygon>
                        <polygon id="Rectangle" transform="translate(35.984701, 37.009484) rotate(119.992901) translate(-35.984701, -37.009484) " points="30.4952228 35.5704691 41.4470055 35.6791599 41.4741782 38.4484998 30.5223955 38.3398091"></polygon>
                        <polygon id="Rectangle" transform="translate(41.564098, 27.585542) rotate(119.992901) translate(-41.564098, -27.585542) " points="38.8125657 26.1736995 44.2884571 26.2280449 44.3156298 28.9973848 38.8397384 28.9430394"></polygon>
                        <polygon id="Rectangle" transform="translate(47.056758, 18.273021) rotate(119.992901) translate(-47.056758, -18.273021) " points="41.7076002 16.8353979 52.3787435 16.9413035 52.4059162 19.7106435 41.7347729 19.6047379"></polygon>
                    </g>
                    <rect id="Rectangle" fill="#CA7300" x="58" y="49" width="8" height="2"></rect>
                    <path d="M71.25,57.9565217 L71.25,62.1304348 C71.25,62.898087 70.6329688,63.5217391 69.875,63.5217391 L67.125,63.5217391 L64.375,63.5217391 L59.0676719,63.5217391 C58.527125,63.5217391 58.006,63.5961739 57.5,63.7128696 L57.5,59.3478261 L54.75,59.3478261 L54.75,64.9130435 L54.9170625,64.9130435 C53.15775,66.2149565 52,68.3031304 52,70.6725217 L52,71.8695652 L41,71.8695652 L41,74.6521739 L52,74.6521739 L52,76.0434783 C52,76.8125217 52.6156563,77.4347826 53.375,77.4347826 L65.75,77.4347826 L65.7503437,80.2173913 L56.125,80.2173913 L56.125,83 L67.1256875,83 L85,83 L85,80.2173913 L76.75,80.2173913 L76.75,76.0434783 L74,76.0434783 L74,80.2173913 L72.625,80.2173913 L72.625,77.4347826 L69.875,77.4347826 L69.875,80.2173913 L68.5006875,80.2173913 L68.5,76.0434783 C68.5,73.741913 70.3504062,71.8695652 72.625,71.8695652 L85,71.8695652 L85,69.0869565 L82.25,69.0869565 L82.25,60.7391304 L79.5,60.7391304 L79.5,69.0869565 L78.125,69.0869565 L78.125,63.5217391 L75.375,63.5217391 L75.375,69.0869565 L72.625,69.0869565 C69.3052344,69.0869565 66.5279063,71.4810435 65.8890469,74.6521739 L54.75,74.6521739 L54.75,70.6725217 C54.75,68.2634783 56.6870313,66.3043478 59.0676719,66.3043478 L64.375,66.3043478 L67.125,66.3043478 L69.875,66.3043478 C72.1495938,66.3043478 74,64.432 74,62.1304348 L74,57.9565217 C74,55.6549565 75.8504063,53.7826087 78.125,53.7826087 L85,53.7826087 L85,51 L78.125,51 C74.3342969,51 71.25,54.1210435 71.25,57.9565217 Z" id="Path" fill="#000000"></path>
                    <path d="M84.4805583,37.4257812 L77.5638917,31.9257812 C77.3112604,31.7257188 77.0058896,31.625 76.7,31.625 L69.6377375,31.625 L68.56185,22 L69.7833333,22 C70.5472792,22 71.1666667,21.3850312 71.1666667,20.625 L71.1666667,15.125 C71.1666667,14.3649688 70.5472792,13.75 69.7833333,13.75 L67.0166667,13.75 L67.0166667,11 C67.7806125,11 68.4,10.3850312 68.4,9.625 C68.4,6.30523438 66.0196292,3.52790625 62.8666667,2.88904687 L62.8666667,0 L60.1,0 L60.1,2.88904688 C56.9470375,3.52790625 54.5666667,6.30523438 54.5666667,9.625 C54.5666667,10.3850312 55.1860542,11 55.95,11 L55.95,13.75 L53.1833333,13.75 C52.4193875,13.75 51.8,14.3649688 51.8,15.125 L51.8,20.625 C51.8,21.3850312 52.4193875,22 53.1833333,22 L54.4285063,22 L51.9253646,48.125 L51.8,48.125 C48.7488854,48.125 46.2666667,50.59175 46.2666667,53.625 L46.2666667,55 L39.2799688,55 C38.5836333,48.0619219 32.6776646,42.625 25.5166667,42.625 C18.3556688,42.625 12.4498729,48.0619219 11.7533646,55 L2,55 L2,57.75 L25.5166667,57.75 L25.5166667,55 L14.5461417,55 C15.2303729,49.5825 19.8840792,45.375 25.5166667,45.375 C31.1492542,45.375 35.8029604,49.5825 36.4871917,55 L35.2,55 L35.2,57.75 L46.2666667,57.75 L46.2666667,66 L49.0333333,66 L49.0333333,53.625 C49.0333333,52.1090625 50.2741833,50.875 51.8,50.875 L67.0166667,50.875 L67.0166667,48.125 L59.1015792,48.125 C59.5814229,47.3072188 60.4638167,46.75 61.4833333,46.75 L69.7833333,46.75 L85,46.75 L85,45.375 L85,44 L85,38.5 C85,38.0823437 84.8089271,37.6875469 84.4805583,37.4257812 Z M69.2977833,37.125 L64.0433646,37.125 L67.5016979,34.375 L72.7568083,34.375 L69.2977833,37.125 Z M61.4833333,5.5 C63.2868542,5.5 64.8254667,6.6495 65.3962646,8.25 L57.5704021,8.25 C58.1412,6.64932812 59.6798125,5.5 61.4833333,5.5 Z M58.7166667,11 L64.25,11 L64.25,13.75 L62.8666667,13.75 L62.8666667,12.375 L60.1,12.375 L60.1,13.75 L58.7166667,13.75 L58.7166667,11 Z M54.5666667,16.5 L68.4,16.5 L68.4,19.25 L67.0166667,19.25 L55.95,19.25 L54.5666667,19.25 L54.5666667,16.5 Z M54.7048271,48.1248281 L57.2077958,21.9998281 L65.7785833,21.9998281 L66.8577562,31.6516406 C66.6021854,31.6815469 66.3554333,31.7647344 66.152775,31.9256094 L59.2361083,37.4256094 C58.9079125,37.687375 58.7166667,38.0821719 58.7166667,38.4998281 L58.7166667,44.7648438 C57.4586979,45.4941094 56.5214896,46.690875 56.1464333,48.1248281 L54.7048271,48.1248281 Z M61.4833333,43.9998281 L61.4833333,39.8748281 L68.4,39.8748281 L68.4,43.9998281 L61.4833333,43.9998281 Z M78.0833333,43.9998281 L78.0833333,39.8748281 L75.3166667,39.8748281 L75.3166667,43.9998281 L71.1666667,43.9998281 L71.1666667,39.1605156 L76.7,34.7601719 L82.2333333,39.1605156 L82.2333333,43.9998281 L78.0833333,43.9998281 Z" id="Shape" fill="#000000"></path>
                    <rect id="Rectangle" fill="#000000" x="62" y="30" width="2" height="2"></rect>
                    <rect id="Rectangle" fill="#000000" x="59" y="24" width="2" height="2"></rect>
                    <rect id="Rectangle" fill="#000000" x="58" y="34" width="2" height="2"></rect>
                    <rect id="Rectangle" fill="#000000" x="51" y="55" width="2" height="11"></rect>
                    <rect id="Rectangle" fill="#000000" x="28" y="56" width="4" height="2"></rect>
                    <rect id="Rectangle" fill="#000000" x="2" y="81" width="15" height="2"></rect>
                    <rect id="Rectangle" fill="#000000" x="20" y="81" width="13" height="2"></rect>
                    <rect id="Rectangle" fill="#000000" x="35" y="81" width="13" height="2"></rect>
                    <rect id="Rectangle" fill="#000000" x="51" y="81" width="2" height="2"></rect>
                    <rect id="Rectangle" fill="#000000" x="28" y="72" width="10" height="2"></rect>
                    <rect id="Rectangle" fill="#000000" x="23" y="72" width="2" height="2"></rect>
                    <rect id="Rectangle" fill="#000000" x="2" y="72" width="18" height="2"></rect>
                    <rect id="Rectangle" fill="#000000" x="1" y="64" width="6" height="2"></rect>
                    <rect id="Rectangle" fill="#000000" x="11" y="64" width="2" height="2"></rect>
                    <rect id="Rectangle" fill="#000000" x="16" y="64" width="19" height="2"></rect>
                    <rect id="Rectangle" fill="#000000" x="37" y="64" width="6" height="2"></rect>
                    <rect id="Rectangle" fill="#000000" x="24" y="29" width="2" height="11"></rect>
                    <rect id="Rectangle" fill="#000000" x="24" y="21" width="2" height="6"></rect>
                    <rect id="Rectangle" fill="#000000" x="24" y="0" width="2" height="18"></rect>
                    <polygon id="Rectangle" fill="#000000" transform="translate(14.411597, 37.530123) rotate(150.007099) translate(-14.411597, -37.530123) " points="13.0244827 32.0043825 15.7894492 32.0066979 15.7987105 43.0558637 13.033744 43.0535484"></polygon>
                    <polygon id="Rectangle" fill="#000000" transform="translate(8.890500, 27.976970) rotate(150.007099) translate(-8.890500, -27.976970) " points="7.50570143 25.2135213 10.2706679 25.2158367 10.2752986 30.7404196 7.51033207 30.7381043"></polygon>
                    <polygon id="Rectangle" fill="#000000" transform="translate(4.046543, 19.911135) rotate(147.729200) translate(-4.046543, -19.911135) " points="2.66083874 16.029548 5.42546537 16.0319621 5.43224781 23.7927226 2.66762118 23.7903085"></polygon>
                    <polygon id="Rectangle" fill="#000000" transform="translate(6.320647, 45.620624) rotate(120.000728) translate(-6.320647, -45.620624) " points="4.93492077 40.0897364 7.69711174 40.092052 7.70637414 51.1515106 4.94418317 51.149195"></polygon>
                    <polygon id="Rectangle" fill="#000000" transform="translate(44.647428, 45.626234) rotate(149.999272) translate(-44.647428, -45.626234) " points="39.1165413 44.240507 50.1759999 44.2497694 50.1783155 47.0119604 39.1188569 47.002698"></polygon>
                    <polygon id="Rectangle" fill="#000000" transform="translate(36.544700, 37.535522) rotate(119.992901) translate(-36.544700, -37.535522) " points="31.0189597 36.1484081 42.0681256 36.1576694 42.0704409 38.9226358 31.021275 38.9133746"></polygon>
                    <polygon id="Rectangle" fill="#000000" transform="translate(42.086593, 27.977632) rotate(119.992901) translate(-42.086593, -27.977632) " points="39.323144 26.5928331 44.847727 26.5974637 44.8500423 29.3624302 39.3254594 29.3577996"></polygon>
                    <polygon id="Rectangle" fill="#000000" transform="translate(47.542332, 18.532746) rotate(119.992901) translate(-47.542332, -18.532746) " points="42.1581591 17.1457506 52.9241901 17.1547746 52.9265054 19.9197411 42.1604744 19.9107171"></polygon>
                </g>
            </g>
        </g>
    </g>
</svg>