<?xml version="1.0" encoding="UTF-8"?>
<svg width="19px" height="20px" viewBox="0 0 19 20" version="1.1" xmlns="http://www.w3.org/2000/svg" xmlns:xlink="http://www.w3.org/1999/xlink">
    <!-- Generator: Sketch 64 (93537) - https://sketch.com -->
    <title>69839</title>
    <desc>Created with Sketch.</desc>
    <g id="Page-1" stroke="none" stroke-width="1" fill="none" fill-rule="evenodd">
        <g id="01-PAYOUT-TOKEN" transform="translate(-1047.000000, -442.000000)" fill="#FFFFFF" fill-rule="nonzero">
            <g id="69839" transform="translate(1047.000000, 442.000000)">
                <path d="M7.86591085,7.58934934 C8.59712169,6.77148895 9,5.67442459 9,4.49993904 C9,2.26374683 7.45109103,0 4.49018668,0 C3.11224235,0 1.94977733,0.488058306 1.12829574,1.4113822 C0.400631889,2.22936451 0,3.32618503 0,4.49993904 C0,6.73637509 1.54234705,9 4.49018668,9 C5.87327413,9 7.04082316,8.51236842 7.86591085,7.58934934 Z M4.49018668,2.09232291 C6.11251823,2.09232291 6.85135508,3.34118157 6.85135508,4.50152404 C6.85135508,5.13272011 6.64539352,5.71703673 6.27106843,6.14663289 C5.85347013,6.62646138 5.2465811,6.88018343 4.51649348,6.88018343 C2.85313514,6.88018343 2.09538104,5.63144669 2.09538104,4.47122614 C2.09538104,3.28729155 2.83599138,2.09232291 4.49018668,2.09232291 Z" id="Shape"></path>
                <path d="M16.7952622,0.0373944769 C16.4971559,0.0426450663 16.0901576,0.223854434 15.8907633,0.439961012 L1.09276098,16.4806399 C0.893432317,16.6968745 1.03463714,17 1.33274349,17 L3.2695482,17 C3.56765456,17 3.97425876,16.8227606 4.17325904,16.6063339 L18.8797738,0.568920612 C19.0787084,0.352301781 19.0655074,0 18.5729324,0 L16.7952622,0.0373944769 Z" id="Path"></path>
                <path d="M14.4900568,11 C13.1125291,11 11.9500161,11.4883239 11.1284651,12.4115905 C10.4008624,13.2292751 10,14.326295 10,15.5000621 C10,17.7362352 11.5423441,20 14.490117,20 C15.8735504,20 17.0407639,19.5121732 17.8659908,18.5892795 C18.5972695,17.7713463 19,16.6742643 19,15.5000621 C19,13.2638891 17.4509066,11 14.4900568,11 Z M14.5166926,17.9349702 C12.867022,17.9349702 12.1153748,16.6574855 12.1153748,15.4711033 C12.1153748,14.8249969 12.3252069,14.2271139 12.7064842,13.7875105 C13.1315116,13.2969494 13.7482323,13.0376866 14.490117,13.0376866 C16.1399081,13.0376866 16.8911937,14.3149227 16.8911937,15.5016779 C16.8911937,16.14766 16.6813014,16.7456672 16.3003254,17.1852706 C15.8751774,17.6757074 15.2583965,17.9349702 14.5166926,17.9349702 Z" id="Shape"></path>
            </g>
        </g>
    </g>
</svg>