<?xml version="1.0" encoding="UTF-8"?>
<svg width="74px" height="74px" viewBox="0 0 74 74" version="1.1" xmlns="http://www.w3.org/2000/svg" xmlns:xlink="http://www.w3.org/1999/xlink">
    <!-- Generator: Sketch 64 (93537) - https://sketch.com -->
    <title>2424549</title>
    <desc>Created with Sketch.</desc>
    <g id="Page-1" stroke="none" stroke-width="1" fill="none" fill-rule="evenodd">
        <g id="Home" transform="translate(-274.000000, -523.000000)" fill-rule="nonzero">
            <g id="2424549" transform="translate(274.000000, 523.000000)">
                <path d="M31,40.6996933 C31,41.9694626 29.992,43 28.75,43 L15.25,43 C9.046,43 4,37.8396453 4,31.4984665 C4,25.2585011 8.887,20.1610215 14.956,20 C15.5425,21.6194159 16.3285,23.1406854 17.287,24.5316042 C16.94695,24.6162555 16.87615,24.5975463 15.25,24.5975463 C11.5285,24.5975463 8.5,27.6937592 8.5,31.4984665 C8.5,35.3031738 11.5285,38.3993866 15.25,38.3993866 L28.75,38.3993866 C29.992,38.3993866 31,39.429924 31,40.6996933 Z" id="Path" fill="#FDB334"></path>
                <path d="M47.3198214,14 L45,14 L45,35.3335564 C49.096516,35.3335564 52.5799682,38.0500293 53.514444,41.7336234 C54.380471,45.1413034 52.9385807,48.6769849 49.9818872,50.5998494 C48.5249679,51.5447837 46.8241623,52.4857358 45,53.3982431 L45,65 L47.3198214,65 C62.0110319,65 73.9419673,53.5993474 74,39.6002677 C74,25.2996737 61.9143106,14 47.3198214,14 Z" id="Path" fill="#B70023"></path>
                <path d="M8.54709141,13.2157676 C6.17085873,13.2157676 4.23822715,11.2290456 4.23822715,8.78630705 C4.23822715,6.34356846 6.17085873,4.35684647 8.54709141,4.35684647 L48.8808864,4.35684647 C50.0506371,4.35684647 51,3.38091286 51,2.17842324 C51,0.97593361 50.0506371,0 48.8808864,0 L8.54709141,0 C3.83418283,0 0,3.94149378 0,8.78630705 C0,13.6311203 3.83418283,17.5726141 8.54709141,17.5726141 L12.974626,17.5726141 C14.0313573,27.3624481 22.1277839,35 31.9279778,35 L44.7994737,35 L44.7994737,13.2157676 L8.54709141,13.2157676 Z" id="Path" fill="#DF0D22"></path>
                <path d="M48.9950991,4 L45,4 L45,0 L48.9950991,0 C50.1018044,0 51,0.896 51,2 C51,3.104 50.1018044,4 48.9950991,4 Z" id="Path" fill="#B70023"></path>
                <circle id="Oval" fill="#FFDD4D" cx="33" cy="25" r="2"></circle>
                <path d="M64,59.7882396 C59.8556011,62.4401366 54.8066594,64 49.3594913,64 L47,64 L47,53.5255239 C48.7977077,52.6751592 50.473103,51.796363 51.9038735,50.914982 C52.3433448,50.643589 52.7472601,50.3373027 53.112775,50 L64,59.7882396 Z" id="Path" fill="#B70023"></path>
                <g id="Group" transform="translate(29.000000, 14.000000)" fill="#FD5D1C">
                    <path d="M19.4673418,0 L17.0891772,0 L17.0891772,21.3091922 L17.2472468,21.3091922 C19.3413133,21.3091922 21.2583703,22.0808691 22.7304114,23.3528858 L38.0734177,8.04691922 C33.394557,3.07520056 26.7586234,0 19.4673418,0 L19.4673418,0 Z" id="Path"></path>
                    <path d="M44.9020253,27.7019499 L25.3959494,27.7019499 C26.1363133,30.7456128 25.1162658,33.9390084 22.7849525,35.964376 L33.6290981,46.6551978 C39.8966297,42.4722033 44.2116456,35.5975738 44.9020253,27.7019499 L44.9020253,27.7019499 Z" id="Path"></path>
                    <path d="M0.0845886076,46.5335933 L0.403575949,50.9417549 L17.2472468,50.9417549 L17.2472468,39.3532479 C11.48625,42.3608273 4.42338608,45.0553036 0.0845886076,46.5335933 L0.0845886076,46.5335933 Z" id="Path"></path>
                </g>
                <path d="M29,64.7293369 L21.5861812,72.0378733 C18.9335443,74.6537946 14.6395883,74.6537946 11.9854442,72.0393588 C9.45488886,69.543761 9.20017543,65.3398671 12.0638176,62.4996391 C9.18811799,59.6519837 9.46393194,55.4466043 11.9854442,52.9614048 C14.6561673,50.3291433 18.9516305,50.3633092 21.5861812,52.9614048 L28.6684204,59.9431368 L29,64.7293369 Z" id="Path" fill="#DF0D22"></path>
            </g>
        </g>
    </g>
</svg>