<?xml version="1.0" encoding="UTF-8"?>
<svg width="74px" height="74px" viewBox="0 0 74 74" version="1.1" xmlns="http://www.w3.org/2000/svg" xmlns:xlink="http://www.w3.org/1999/xlink">
    <!-- Generator: Sketch 64 (93537) - https://sketch.com -->
    <title>3142415</title>
    <desc>Created with Sketch.</desc>
    <g id="Page-1" stroke="none" stroke-width="1" fill="none" fill-rule="evenodd">
        <g id="Home" transform="translate(-683.000000, -523.000000)" fill-rule="nonzero">
            <g id="Group-6" transform="translate(425.000000, 488.000000)">
                <g id="3142415" transform="translate(258.000000, 35.000000)">
                    <g id="Group" transform="translate(24.570312, 15.175781)">
                        <polygon id="Path" fill="#17799C" points="0.100738281 0.125453125 4.43667578 0.125453125 4.43667578 8.47516797 0.100738281 8.47516797"></polygon>
                        <polygon id="Path" fill="#12617C" points="20.4516055 0.125453125 24.787543 0.125453125 24.787543 8.47516797 20.4516055 8.47516797"></polygon>
                    </g>
                    <g id="Group" transform="translate(0.000000, 59.402344)">
                        <path d="M36.9989883,3.02561719 C34.3987266,3.02561719 33.1725234,2.45081641 31.7526484,1.78525 C30.1025352,1.01171875 28.2323008,0.134992188 24.6659922,0.134992188 C21.0998281,0.134992188 19.2295937,1.01171875 17.5794805,1.78525 C16.1596055,2.45081641 14.9334023,3.02561719 12.3329961,3.02561719 C9.73258984,3.02561719 8.50638672,2.45081641 7.08651172,1.78525 C5.43639844,1.01171875 3.56616406,0.134992188 -3.08086889e-15,0.134992188 L-3.08086889e-15,7.36502344 L5.19980078,11.021375 L37,11.021375 L37,3.02561719 C37,3.02561719 36.9994219,3.02561719 36.9989883,3.02561719 Z" id="Path" fill="#64CEF2"></path>
                        <path d="M66.9129102,1.78525 C65.4930352,2.45081641 64.2666875,3.02561719 61.6661367,3.02561719 C59.0655859,3.02561719 57.8390937,2.45081641 56.4192187,1.78525 C54.7689609,1.01171875 52.898582,0.134992187 49.3322734,0.134992187 C45.7659648,0.134992187 43.8955859,1.01171875 42.2454727,1.78525 C40.8257422,2.45067187 39.5995391,3.02547266 37,3.02561719 L37,11.021375 L68.4764492,11.021375 L74,7.36502344 L74,0.134992187 C70.4335469,0.134992187 68.563168,1.01171875 66.9129102,1.78525 L66.9129102,1.78525 Z" id="Path" fill="#22AADB"></path>
                    </g>
                    <g id="Group" transform="translate(22.113281, 39.601562)">
                        <polygon id="Path" fill="#F2F6FC" points="14.5726523 -0.0002890625 0.907367187 2.15467188 0.100738281 11.0504258 14.8867188 12.7288672 16.4693359 6.36428906 14.8867188 0.0471171875"></polygon>
                        <polygon id="Path" fill="#DCE1EB" points="28.8660703 2.15467188 14.8867188 0.0471171875 14.8867188 12.7288672 29.6726992 11.0504258"></polygon>
                    </g>
                    <g id="Group" transform="translate(21.101562, 50.585938)">
                        <polygon id="Path" fill="#CF0D52" points="1.11245703 0.0660507812 0.0703867187 11.5591758 15.8984375 11.5591758 17.9762188 5.81261328 15.8984375 0.0660507812"></polygon>
                        <polygon id="Path" fill="#AD1634" points="30.684418 0.0660507812 15.8984375 0.0660507812 15.8984375 11.5591758 31.7264883 11.5591758"></polygon>
                    </g>
                    <g id="Group" transform="translate(23.703125, 23.414062)">
                        <polygon id="Path" fill="#F2F6FC" points="0.976886719 0.041046875 0.124152344 9.44627344 13.296875 11.8271367 15.4792969 5.37930859 13.296875 0.041046875"></polygon>
                        <polygon id="Path" fill="#DCE1EB" points="25.6168633 0.041046875 13.296875 0.041046875 13.296875 11.8271367 26.4697422 9.44627344"></polygon>
                    </g>
                    <g id="Group" transform="translate(24.570312, 0.000000)">
                        <polygon id="Path" fill="#17799C" points="10.2761719 23.6508047 12.4296875 23.6508047 13.5208984 19.4760195 12.4296875 15.3012344 10.2761719 15.3012344"></polygon>
                        <path d="M12.4296875,0 C5.62356641,0 0.0864296875,5.53728125 0.0864296875,12.3432578 L0.0864296875,14.4742266 L12.4296875,14.4742266 L15.4229297,7.23711328 L12.4296875,0 Z" id="Path" fill="#FD445F"></path>
                        <polygon id="Path" fill="#12617C" points="12.4296875 15.3012344 14.6121094 15.3012344 14.6121094 23.6509492 12.4296875 23.6509492"></polygon>
                        <path d="M24.7730898,12.3432578 C24.7730898,5.53728125 19.2359531,0 12.4296875,0 L12.4296875,14.4743711 L24.7730898,14.4743711 L24.7730898,12.3432578 Z" id="Path" fill="#CF0D52"></path>
                    </g>
                    <polygon id="Path" fill="#CF0D52" points="23.8272773 32.8603359 23.0206484 41.7562344 37 41.7562344 39.0777812 37.3082852 37 32.8603359"></polygon>
                    <polygon id="Path" fill="#AD1634" points="50.1728672 32.8603359 37 32.8603359 37 41.7562344 50.9793516 41.7562344"></polygon>
                    <polygon id="Path" fill="#CF0D52" points="21.4928086 25.8187734 37 25.8187734 38.5826172 23.6508047 37 21.4828359 21.4928086 21.4828359"></polygon>
                    <polygon id="Path" fill="#CF0D52" points="21.4928086 12.6995273 21.4928086 17.0354648 37 17.0354648 39.1824219 14.8674961 37 12.6995273"></polygon>
                    <polygon id="Path" fill="#AD1634" points="37 12.6995273 52.5071914 12.6995273 52.5071914 17.0354648 37 17.0354648"></polygon>
                    <polygon id="Path" fill="#AD1634" points="37 21.4828359 52.5071914 21.4828359 52.5071914 25.8187734 37 25.8187734"></polygon>
                    <polygon id="Path" fill="#17799C" points="17.572543 57.8091758 13.0540625 71.1296094 17.1601953 72.522457 37 72.522457 39.1824219 65.1658164 37 57.8091758"></polygon>
                    <polygon id="Path" fill="#12617C" points="60.9459375 71.1296094 56.427457 57.8091758 37 57.8091758 37 72.522457 56.8398047 72.522457"></polygon>
                    <g id="Group" transform="translate(0.000000, 66.628906)">
                        <path d="M36.9989883,3.02908594 C34.3987266,3.02908594 33.1725234,2.45428516 31.7526484,1.78871875 C30.1025352,1.0151875 28.2323008,0.138460938 24.6659922,0.138460938 C21.0998281,0.138460938 19.2295937,1.0151875 17.5794805,1.78871875 C16.1596055,2.45428516 14.9334023,3.02908594 12.3329961,3.02908594 C9.73258984,3.02908594 8.50638672,2.45428516 7.08651172,1.78871875 C5.43639844,1.0151875 3.56616406,0.138460938 -3.08086889e-15,0.138460938 L-3.08086889e-15,7.37109375 L37,7.37109375 L39.0777812,5.332625 L37,3.02908594 C36.9997109,3.02908594 36.9994219,3.02908594 36.9989883,3.02908594 Z" id="Path" fill="#A1E2F7"></path>
                        <path d="M74,0.138460938 C70.4335469,0.138460938 68.563168,1.0151875 66.9129102,1.78871875 C65.4930352,2.45428516 64.2666875,3.02908594 61.6661367,3.02908594 C59.0655859,3.02908594 57.8390938,2.45428516 56.4192187,1.78871875 C54.7689609,1.0151875 52.898582,0.138460938 49.3322734,0.138460938 C45.7659648,0.138460938 43.8955859,1.0151875 42.2454727,1.78871875 C40.8257422,2.45414063 39.5995391,3.02894141 37,3.02908594 L37,7.37109375 L74,7.37109375 L74,0.138460938 Z" id="Path" fill="#64CEF2"></path>
                    </g>
                </g>
            </g>
        </g>
    </g>
</svg>