<?xml version="1.0" encoding="UTF-8"?>
<svg width="90px" height="90px" viewBox="0 0 90 90" version="1.1" xmlns="http://www.w3.org/2000/svg" xmlns:xlink="http://www.w3.org/1999/xlink">
    <!-- Generator: sketchtool 64 (101010) - https://sketch.com -->
    <title>548321A0-33E2-4588-ABF0-803203E3832D</title>
    <desc>Created with sketchtool.</desc>
    <defs>
        <linearGradient x1="67.1542768%" y1="100%" x2="67.1542768%" y2="0%" id="linearGradient-1">
            <stop stop-color="#0DEEFF" offset="0%"></stop>
            <stop stop-color="#F5FD0F" offset="100%"></stop>
        </linearGradient>
        <path d="M90,46.9996586 C90,70.7479298 70.7479298,90 46.9996586,90 C23.2513875,90 4,70.7479298 4,46.9996586 C4,23.2513875 23.2513875,4 46.9996586,4 C70.7479298,4 90,23.2513875 90,46.9996586 Z" id="path-2"></path>
        <filter x="-7.0%" y="-7.0%" width="114.0%" height="114.0%" filterUnits="objectBoundingBox" id="filter-3">
            <feGaussianBlur stdDeviation="4" in="SourceAlpha" result="shadowBlurInner1"></feGaussianBlur>
            <feOffset dx="0" dy="4" in="shadowBlurInner1" result="shadowOffsetInner1"></feOffset>
            <feComposite in="shadowOffsetInner1" in2="SourceAlpha" operator="arithmetic" k2="-1" k3="1" result="shadowInnerInner1"></feComposite>
            <feColorMatrix values="0 0 0 0 0   0 0 0 0 0   0 0 0 0 0  0 0 0 0.5 0" type="matrix" in="shadowInnerInner1"></feColorMatrix>
        </filter>
    </defs>
    <g id="Page-1" stroke="none" stroke-width="1" fill="none" fill-rule="evenodd">
        <g id="04-PAYOUT-TOKEN" transform="translate(-691.000000, -402.000000)">
            <g id="Group-9" transform="translate(435.000000, 362.000000)">
                <g id="1722017" transform="translate(256.000000, 40.000000)">
                    <g id="Path">
                        <use fill="url(#linearGradient-1)" fill-rule="evenodd" xlink:href="#path-2"></use>
                        <use fill="black" fill-opacity="1" filter="url(#filter-3)" xlink:href="#path-2"></use>
                    </g>
                    <polygon id="Path" fill="#FFFFFF" fill-rule="nonzero" points="60.2563853 25 39.7295946 46.0322347 30.7442877 36.8256767 21 46.8099042 29.9853071 56.0164621 39.7295946 66 70 34.9842274"></polygon>
                    <path d="M41.6685313,70 C41.206828,70 40.7641641,69.8118903 40.4377759,69.4774732 L21.5099815,50.0847655 C20.8300062,49.3880633 20.8300062,48.2587087 21.5099815,47.5620065 L31.3567049,37.4730609 C32.0366803,36.7763586 33.1389203,36.7763586 33.8188957,37.4730609 L41.6685313,45.5157919 L61.1811043,25.5225268 C61.5074925,25.1881097 61.9508365,25 62.4125398,25 C62.873563,25 63.3169069,25.1881097 63.6432951,25.5225268 L73.4900185,35.612169 C74.1699938,36.3081747 74.1699938,37.437529 73.4900185,38.1342313 L42.8992866,69.4781699 C42.5728984,69.812587 42.1302346,70 41.6685313,70 L41.6685313,70 Z M25.2029278,48.8237343 L41.6685313,65.6943799 L69.7977522,36.8732003 L62.4125398,29.3056201 L42.8992866,49.2988854 C42.2193112,49.9955876 41.1170712,49.9955876 40.4377759,49.2988854 L32.5881403,41.2561543 L25.2029278,48.8237343 Z" id="Shape" fill="#000000" fill-rule="nonzero"></path>
                    <path d="M44.9889419,90 C43.8408724,90 42.6914297,89.9560547 41.5399269,89.8681641 C30.846127,89.0483094 20.7744267,84.4141388 13.1801395,76.8205262 C4.68085491,68.3205414 0,57.0204162 0,45 C0,32.9802704 4.68085491,21.6794586 13.1801395,13.1801606 C21.679424,4.68086238 32.9802178,0 44.9999282,0 C57.0203252,0 68.3204324,4.68086238 76.8204036,13.1801606 C84.414004,20.7744599 89.0481673,30.8461762 89.8680206,41.5399932 C90.6789476,52.1177674 87.7332432,62.6612091 81.5740427,71.2291718 C81.0075611,72.0174408 79.9089301,72.1966553 79.1206623,71.6301728 C78.3323945,71.0636903 78.1531803,69.9650575 78.7196619,69.1767882 C90.6247028,52.6169586 88.7803759,30.1128388 74.334064,15.6658173 C58.1594683,-0.508804277 31.8410747,-0.508804277 15.6664789,15.6658173 C-0.508803465,31.8411255 -0.508803465,58.1588745 15.6664789,74.3341827 C30.1127907,88.779831 52.6175614,90.6248475 69.1773646,78.719101 C69.9656324,78.1526183 71.0635768,78.3325195 71.630745,79.1207886 C72.1972266,79.9090576 72.0173259,81.0070038 71.2290581,81.5741729 C63.5935722,87.0632172 54.3884172,90 44.9889419,90 L44.9889419,90 Z" id="Path" fill="#000000" fill-rule="nonzero"></path>
                    <path d="M76,78 C75.4734374,78 74.9578126,77.7859374 74.5859374,77.4140626 C74.2140626,77.0414062 74,76.5257812 74,76 C74,75.4734374 74.2140626,74.9578126 74.5859374,74.5859374 C74.9578126,74.2140626 75.4734374,74 76,74 C76.5257812,74 77.0414062,74.2140626 77.4140626,74.5859374 C77.7859374,74.9578126 78,75.4734374 78,76 C78,76.5257812 77.7859374,77.0414062 77.4140626,77.4140626 C77.0414062,77.7859374 76.5257812,78 76,78 Z" id="Path" fill="#000000" fill-rule="nonzero"></path>
                </g>
            </g>
        </g>
    </g>
</svg>