<?xml version="1.0" encoding="UTF-8"?>
<svg width="74px" height="74px" viewBox="0 0 74 74" version="1.1" xmlns="http://www.w3.org/2000/svg" xmlns:xlink="http://www.w3.org/1999/xlink">
    <!-- Generator: Sketch 64 (93537) - https://sketch.com -->
    <title>3050655</title>
    <desc>Created with Sketch.</desc>
    <g id="Page-1" stroke="none" stroke-width="1" fill="none" fill-rule="evenodd">
        <g id="Home" transform="translate(-886.000000, -523.000000)" fill-rule="nonzero">
            <g id="Group-6" transform="translate(425.000000, 488.000000)">
                <g id="3050655" transform="translate(461.000000, 35.000000)">
                    <path d="M74,44.7504716 C74,57.6090493 63.460083,68 50.581817,68 L26.8051334,68 C14.9919611,68 4.7877047,60.3334319 1.29521519,49.6603099 C-2.91311903,36.8010101 3.50693247,23.644232 15.1480823,18.1954667 L22.0333172,14.9723023 L21.8945428,14.6748238 C19.5397144,9.61624631 21.7413127,3.58725369 26.8051334,1.23486352 L29.0255241,0.202353404 C30.103917,-0.298738917 31.3962537,0.160475371 31.9065388,1.25219236 L34.8916344,7.66097541 C35.7315087,9.46606302 35.6635671,11.8054566 34.689255,14.617061 C34.255585,15.873402 34.9118723,17.2813703 36.1550598,17.7564694 C38.9305482,18.819305 40.7649725,20.2734836 41.6048468,22.0785712 L44.5899424,28.4859102 C45.0944452,29.5675187 44.6260816,30.8585173 43.5375697,31.3639418 L41.317179,32.396452 C36.3256367,34.7156285 30.4812099,32.624615 28.0309741,27.8346346 C24.1814296,29.8722174 24.3838089,29.7682444 24.2638269,29.821675 C22.828379,30.4469573 21.8685226,31.8217121 21.8179278,33.3221009 C21.7442039,36.1134884 23.9660401,38.2521562 26.5854073,38.2521562 L67.3503925,38.2521562 C70.9382894,38.2521562 74,41.1475167 74,44.7504716 Z" id="Path" fill="#2E51BC"></path>
                    <path d="M73,50 C70.7317498,60.2699213 61.3645831,68 50.1646472,68 L26.4467966,68 C14.6628547,68 4.48384771,60.4754331 1,50 L73,50 Z" id="Path" fill="#1E347B"></path>
                    <path d="M42.1800121,54.1418588 C42.1464425,54.1534213 38.7669139,55.3170827 34.3380144,56.4660686 C31.4537444,57.2145178 29.9808253,55.2972189 29.7771222,55.0068224 C28.9141696,53.5936779 26.8017143,53.6414103 26.0554696,55.3194545 L19.1987035,70.7361151 C18.5841658,72.117685 19.4612605,73.7198318 20.9198946,73.879335 C21.0593155,73.8946034 22.0855449,74 23.6434593,74 C35.5465195,74 45,68.5531752 45,56.251273 C45,54.7359932 43.5670787,53.6626082 42.1800121,54.1418588 Z" id="Path" fill="#152659"></path>
                    <path d="M54,49.9999059 C54,51.7611441 51.8813568,52.6743443 50.5853712,51.4150795 C49.8156464,50.6222092 49.79418,49.4022548 50.5853712,48.5873973 C51.8466905,47.3268 53.9986667,48.2328043 54,49.9999059 Z" id="Path" fill="#F9F9F9"></path>
                    <path d="M54,50 C54,51.7611554 51.8813333,52.6743125 50.5853333,51.4151071 C50.196,51.0140268 50,50.5076797 50,50 L54,50 Z" id="Path" fill="#E7F1F9"></path>
                    <path d="M74,48 C73.8184201,49.3825333 73.5049145,50.6948 73.0462323,52 L60.1842009,52 C58.978522,52 58,51.104 58,50 C58,48.8962667 58.977794,48 60.1842009,48 L74,48 Z" id="Path" fill="#F9F9F9"></path>
                    <path d="M74,50 C73.8345907,50.679547 73.6334172,51.3457695 73.3979696,52 L60.2352612,52 C59.0048244,52 58,51.1081945 58,50 L74,50 Z" id="Path" fill="#E7F1F9"></path>
                </g>
            </g>
        </g>
    </g>
</svg>