<?xml version="1.0" encoding="UTF-8"?>
<svg width="24px" height="20px" viewBox="0 0 24 20" version="1.1" xmlns="http://www.w3.org/2000/svg" xmlns:xlink="http://www.w3.org/1999/xlink">
    <!-- Generator: Sketch 64 (93537) - https://sketch.com -->
    <title>1123839</title>
    <desc>Created with Sketch.</desc>
    <g id="Page-1" stroke="none" stroke-width="1" fill="none" fill-rule="evenodd">
        <g id="Desktop-HD-Copy-5" transform="translate(-664.000000, -132.000000)" fill="#FFFFFF" fill-rule="nonzero">
            <g id="Group-4" transform="translate(463.000000, 130.000000)">
                <g id="1123839" transform="translate(201.000000, 2.000000)">
                    <path d="M22.3611111,0 L0.972222222,0 C0.435553672,0 0,0.431405542 0,0.962962963 L0,16.3703704 C0,16.9019278 0.435553672,17.3333333 0.972222222,17.3333333 L7.77777778,17.3333333 C8.31444633,17.3333333 8.75,16.9019278 8.75,16.3703704 C8.75,15.8388129 8.31444633,15.4074074 7.77777778,15.4074074 L1.94444444,15.4074074 L1.94444444,5.77777778 L21.3888889,5.77777778 L21.3888889,6.74074074 C21.3888889,7.27229816 21.8244426,7.7037037 22.3611111,7.7037037 C22.8977797,7.7037037 23.3333333,7.27229816 23.3333333,6.74074074 L23.3333333,0.962962963 C23.3333333,0.431405542 22.8977797,0 22.3611111,0 Z M1.94444444,3.85185185 L1.94444444,1.92592593 L21.3888889,1.92592593 L21.3888889,3.85185185 L1.94444444,3.85185185 Z" id="Shape"></path>
                    <path d="M4.88888889,11.3333333 C4.3982205,11.3333333 4,11.7813314 4,12.3333333 C4,12.8853353 4.3982205,13.3333333 4.88888889,13.3333333 L5.77777778,13.3333333 C6.26844617,13.3333333 6.66666667,12.8853353 6.66666667,12.3333333 C6.66666667,11.7813314 6.26844617,11.3333333 5.77777778,11.3333333 L4.88888889,11.3333333 Z" id="Path"></path>
                    <path d="M10.6666667,12.3333333 C10.6666667,11.7813314 10.2684462,11.3333333 9.77777778,11.3333333 L8.88888889,11.3333333 C8.3982205,11.3333333 8,11.7813314 8,12.3333333 C8,12.8853353 8.3982205,13.3333333 8.88888889,13.3333333 L9.77777778,13.3333333 C10.2684462,13.3333333 10.6666667,12.8853353 10.6666667,12.3333333 Z" id="Path"></path>
                    <path d="M17.3330892,10 C16.7810957,10 16.3331045,10.4479981 16.3331045,11 L16.3331045,18.5859375 L15.0401554,17.2929688 C14.6495364,16.9025879 14.0167336,16.9025879 13.6261145,17.2929688 C13.2357396,17.6835938 13.2357396,18.3164063 13.6261145,18.7070312 L16.6260687,21.7070313 C16.640717,21.7214356 16.6580507,21.7319336 16.6736755,21.7456055 C16.6910091,21.7609863 16.708587,21.7749024 16.7276297,21.7895508 C16.7954998,21.842041 16.8670319,21.8869629 16.9436908,21.9194336 C16.9461322,21.9204101 16.9480853,21.9226074 16.9505267,21.9240723 C16.9515032,21.9245606 16.9519915,21.9245606 16.9532122,21.9245606 C17.0066782,21.9465332 17.0620972,21.9619141 17.1180046,21.9746094 C17.1255729,21.9760743 17.1331411,21.9794922 17.1411976,21.9814453 C17.2041849,21.9934082 17.2686371,22 17.3330892,22 C17.3975414,22 17.4619935,21.9934082 17.5254691,21.980957 C17.5406055,21.9780274 17.5550096,21.9714356 17.5701462,21.9680176 C17.617997,21.956543 17.6656036,21.9445801 17.7115014,21.9255371 C17.728591,21.918457 17.7434833,21.907959 17.7600846,21.8999024 C17.8025645,21.8798828 17.8450443,21.8601074 17.8850827,21.8339844 C17.9400136,21.7976074 17.992503,21.7548828 18.0405979,21.7070313 L21.0405521,18.7070312 C21.4309271,18.3164063 21.4309271,17.6835938 21.0405521,17.2929688 C20.6499331,16.9025879 20.0171303,16.9025879 19.6265112,17.2929688 L18.333074,18.5859375 L18.333074,11 C18.333074,10.4479981 17.8850827,10 17.3330892,10 L17.3330892,10 Z" id="Path" transform="translate(17.333333, 16.000000) rotate(90.000000) translate(-17.333333, -16.000000) "></path>
                </g>
            </g>
        </g>
    </g>
</svg>